<svg width="182" height="56" viewBox="0 0 182 56" fill="none" xmlns="http://www.w3.org/2000/svg">
<path d="M11.2183 0C11.2183 0.145312 11.2183 0.289614 11.2183 0.434926V27.9089C11.2183 28.0159 11.2183 28.1219 11.2183 28.2288C11.2183 28.3136 11.2526 28.3429 11.3464 28.3449H25.032C25.1329 28.3449 25.2257 28.3449 25.3226 28.3449C25.3932 28.3449 25.4235 28.3782 25.4235 28.4549C25.4235 28.5316 25.4235 28.6294 25.4235 28.7162C25.4235 32.1533 25.4235 35.5899 25.4235 39.0263C25.4235 39.4693 25.481 39.4118 25.0411 39.4118C16.8081 39.4118 8.57541 39.4118 0.343097 39.4118C0.228519 39.4264 0.112241 39.4199 0 39.3926L0 0H11.2183Z" fill="#0E477C"/>
<path d="M39.876 0C39.876 0.135221 39.8861 0.270441 39.8861 0.403644C39.8861 3.84 39.8861 7.27669 39.8861 10.7137V38.9193C39.8861 39.0455 39.8861 39.1716 39.8861 39.2967C39.8861 39.3977 39.8498 39.4279 39.7398 39.431C39.6621 39.431 39.5854 39.431 39.5077 39.431H29.1038C29.0029 39.431 28.911 39.4239 28.8142 39.4188C28.7953 39.4146 28.778 39.405 28.7644 39.3913C28.7508 39.3775 28.7415 39.3601 28.7375 39.3411C28.7375 39.3028 28.7294 39.2645 28.7284 39.2261C28.7284 39.1191 28.7284 39.0132 28.7284 38.9062C28.7284 29.767 28.7284 20.6275 28.7284 11.4877C28.7284 10.969 28.8031 11.0417 28.2864 11.0417C23.8403 11.0417 19.3945 11.0417 14.949 11.0417C14.4697 11.0417 14.5292 11.1032 14.5292 10.63C14.5292 7.21177 14.5292 3.79425 14.5292 0.377407C14.5292 0.251268 14.5292 0.126139 14.5353 0L39.876 0Z" fill="#018AC0"/>
<path d="M181.999 33.7567C181.904 33.7354 181.807 33.7297 181.71 33.7396H176.594C176.527 33.7396 176.458 33.7396 176.392 33.7396C176.354 33.745 176.315 33.7381 176.281 33.72C176.247 33.7019 176.22 33.6734 176.203 33.6387C176.17 33.5791 176.135 33.5216 176.102 33.4631L166.982 17.7805L165.191 14.6926C165.147 14.618 165.102 14.5443 165.054 14.4717C165.047 14.4616 165.021 14.4636 165.004 14.4636C165 14.4647 164.996 14.4669 164.993 14.47C164.99 14.473 164.988 14.4767 164.988 14.4807C164.988 14.5816 164.988 14.6745 164.988 14.7714V33.3309C164.988 33.4318 164.988 33.5247 164.988 33.6215C164.988 33.7184 164.952 33.7356 164.859 33.7376H159.439C159.381 33.7389 159.323 33.7362 159.266 33.7295C159.251 33.7276 159.238 33.7209 159.228 33.7105C159.218 33.7 159.211 33.6865 159.209 33.672C159.205 33.6436 159.201 33.615 159.199 33.5862C159.199 33.4984 159.199 33.4116 159.199 33.3248C159.199 24.2429 159.199 15.1609 159.199 6.07889C159.199 5.59149 159.131 5.66011 159.603 5.66011C161.326 5.66011 163.051 5.66011 164.776 5.66011C164.852 5.66011 164.93 5.66011 165.008 5.66011C165.047 5.65695 165.085 5.6662 165.118 5.68651C165.152 5.70683 165.178 5.73716 165.192 5.77313C165.229 5.84175 165.27 5.90734 165.308 5.97495C166.99 8.85898 168.672 11.7427 170.354 14.626L176.04 24.3821C176.089 24.4649 176.141 24.5476 176.192 24.6294C176.192 24.6294 176.209 24.6294 176.217 24.6294C176.225 24.6294 176.236 24.6223 176.237 24.6172C176.243 24.589 176.246 24.5603 176.247 24.5315C176.247 24.4154 176.247 24.2984 176.247 24.1823V6.05971C176.247 5.95275 176.247 5.84679 176.253 5.73983C176.256 5.72085 176.265 5.70343 176.28 5.69041C176.294 5.67739 176.312 5.66956 176.331 5.66818C176.432 5.66818 176.525 5.66112 176.622 5.66112H181.648C181.736 5.66112 181.823 5.66112 181.909 5.66112C181.938 5.65609 181.966 5.64866 181.993 5.63892L181.999 33.7567Z" fill="#0E477C"/>
<path d="M110.908 55.2548C110.895 55.2404 110.88 55.2287 110.863 55.2205C110.845 55.2124 110.826 55.2079 110.807 55.2074C110.706 55.1963 110.595 55.1862 110.489 55.1721C110.465 55.1667 110.444 55.1542 110.427 55.1361C110.41 55.1181 110.4 55.0954 110.396 55.0711C110.396 55.0328 110.396 54.9944 110.396 54.9561C110.396 54.6261 110.396 54.2972 110.396 53.9682C110.396 53.9076 110.43 53.8814 110.488 53.8895C110.518 53.8895 110.546 53.9026 110.574 53.9046C110.632 53.9081 110.69 53.9081 110.748 53.9046C110.796 53.8987 110.843 53.8893 110.89 53.8764C110.957 53.8628 111.018 53.8274 111.063 53.7758C111.108 53.7242 111.135 53.6592 111.139 53.5908C111.147 53.5332 111.15 53.4752 111.149 53.4172C111.149 53.3002 111.149 53.1841 111.149 53.0681C111.149 51.0054 111.149 48.9432 111.149 46.8812C111.149 46.4856 111.116 46.521 111.507 46.5199H112.524C112.582 46.5191 112.639 46.5238 112.696 46.5341C112.709 46.5389 112.721 46.5463 112.731 46.5559C112.741 46.5654 112.748 46.5769 112.754 46.5896C112.763 46.6171 112.767 46.6463 112.765 46.6754C112.765 46.7531 112.765 46.8297 112.765 46.9074V53.5302C112.765 53.6755 112.765 53.8209 112.765 53.9662C112.758 54.1599 112.719 54.3511 112.65 54.5323C112.607 54.6518 112.54 54.7613 112.454 54.8538C112.367 54.9464 112.262 55.02 112.145 55.0701C112.021 55.1241 111.891 55.1647 111.758 55.1912C111.739 55.1928 111.72 55.1988 111.704 55.2086C111.687 55.2183 111.673 55.2317 111.663 55.2477L110.908 55.2548Z" fill="#828282"/>
<path d="M181.999 52.6977C181.748 52.6977 181.494 52.7058 181.245 52.7068C181.023 52.7068 180.8 52.7068 180.578 52.7068C180.549 52.7056 180.52 52.7029 180.491 52.6987C180.473 52.6944 180.456 52.6843 180.444 52.6697C180.431 52.6552 180.424 52.637 180.423 52.618C180.423 52.5504 180.416 52.4838 180.416 52.4162C180.416 50.5513 180.416 48.6862 180.416 46.8207C180.416 46.7631 180.416 46.7046 180.416 46.6471C180.414 46.6327 180.415 46.6181 180.419 46.6041C180.423 46.5902 180.43 46.5773 180.44 46.5664C180.449 46.5555 180.461 46.5468 180.474 46.5408C180.488 46.5349 180.502 46.5319 180.516 46.5321C180.536 46.5311 180.555 46.5311 180.574 46.5321H181.908C181.937 46.5321 181.966 46.5391 181.995 46.5422L181.999 52.6977Z" fill="#828282"/>
<path d="M181.999 45.7843C181.565 45.7843 181.131 45.7843 180.697 45.7843C180.63 45.7843 180.562 45.7843 180.496 45.7762C180.477 45.7728 180.46 45.7634 180.447 45.7494C180.434 45.7354 180.426 45.7175 180.424 45.6985C180.421 45.6798 180.419 45.661 180.418 45.642V44.4846C180.419 44.4656 180.421 44.4468 180.424 44.4281C180.428 44.4094 180.436 44.3922 180.449 44.3783C180.462 44.3644 180.478 44.3543 180.497 44.3494C180.564 44.3494 180.632 44.3403 180.699 44.3403H181.856C181.904 44.3403 181.952 44.3342 182 44.3312L181.999 45.7843Z" fill="#828282"/>
<path d="M91.4253 19.6837V6.03046C91.4253 5.93459 91.4253 5.83772 91.4253 5.74084C91.4286 5.72208 91.4377 5.70482 91.4512 5.69144C91.4648 5.67806 91.4822 5.66923 91.501 5.66617C91.6019 5.66617 91.6947 5.66617 91.7916 5.66617H97.1964C100.161 5.66617 103.126 5.66617 106.09 5.66617C106.536 5.66617 106.982 5.67323 107.426 5.70855C108.567 5.79937 109.657 6.07587 110.663 6.64198C111.139 6.90327 111.575 7.22967 111.961 7.61173C112.147 7.79805 112.316 8.00068 112.465 8.2172C112.994 8.97109 113.4 9.80469 113.666 10.6865C113.838 11.2715 113.949 11.8728 113.997 12.4807C114.027 12.8185 114.039 13.1578 114.031 13.4969C114.019 14.2832 113.899 15.0642 113.674 15.8178C113.277 17.1261 112.466 18.2702 111.363 19.0782C110.825 19.4749 110.242 19.8065 109.627 20.0662C109.547 20.1005 109.468 20.1378 109.39 20.1762C109.378 20.1822 109.372 20.2014 109.366 20.2155C109.36 20.2296 109.379 20.2286 109.387 20.2327C109.663 20.3507 109.939 20.4678 110.215 20.5869C110.374 20.6565 110.531 20.7332 110.69 20.8038C111.008 20.9488 111.299 21.1467 111.55 21.3891C111.76 21.59 111.955 21.8058 112.134 22.0349C112.424 22.4003 112.619 22.832 112.701 23.2913C112.773 23.662 112.836 24.034 112.89 24.4074C112.951 24.8191 112.999 25.2325 113.034 25.6475C113.071 26.0613 113.097 26.478 113.107 26.8938C113.136 28.0745 113.178 29.2551 113.181 30.4368C113.181 30.709 113.215 30.9802 113.282 31.2441C113.409 31.7874 113.737 32.2626 114.2 32.5751C114.267 32.6121 114.329 32.6586 114.383 32.7133C114.437 32.785 114.408 32.8819 114.409 32.9686C114.409 33.2007 114.409 33.4328 114.409 33.6659C114.406 33.6897 114.395 33.7118 114.378 33.7283C114.36 33.7447 114.338 33.7544 114.314 33.7557H114.112H108.416C108.214 33.7557 108.214 33.7557 108.123 33.5852C107.838 33.0449 107.63 32.4675 107.505 31.8697C107.478 31.7274 107.451 31.5851 107.435 31.4408C107.408 31.2007 107.381 30.9595 107.369 30.7173C107.32 29.6921 107.295 28.6668 107.343 27.6395C107.362 27.2359 107.376 26.8272 107.396 26.4215C107.416 26.0151 107.402 25.6077 107.354 25.2035C107.314 24.847 107.221 24.4984 107.079 24.1692C106.858 23.6564 106.454 23.2446 105.945 23.0148C105.656 22.8816 105.351 22.7866 105.037 22.7322C104.627 22.6606 104.211 22.6252 103.794 22.6263H97.487C97.4093 22.6263 97.3316 22.6313 97.2549 22.6384C97.2398 22.6384 97.2226 22.6606 97.2146 22.6757C97.2064 22.6934 97.2023 22.7127 97.2024 22.7322C97.2024 22.8331 97.2024 22.926 97.2024 23.0229C97.2024 26.47 97.2024 29.9171 97.2024 33.3642C97.2024 33.8112 97.2569 33.7537 96.823 33.7537C95.1472 33.7537 93.4711 33.7537 91.7946 33.7537C91.6937 33.7537 91.6019 33.7537 91.505 33.7537C91.4861 33.7502 91.4687 33.7409 91.4555 33.7269C91.4423 33.7129 91.4338 33.6951 91.4313 33.676C91.4313 33.5892 91.4313 33.5025 91.4313 33.4147V19.6837H91.4253ZM101.204 10.4857H97.598C97.5112 10.4857 97.4234 10.4857 97.3367 10.4857C97.308 10.4868 97.2797 10.4926 97.2529 10.5028C97.2368 10.5028 97.2156 10.526 97.2146 10.5402C97.2061 10.6071 97.2018 10.6745 97.2014 10.742C97.2014 13.0084 97.2014 15.2746 97.2014 17.5404C97.2014 17.5787 97.2014 17.6171 97.2014 17.6564C97.2014 17.7624 97.2277 17.7846 97.3437 17.7866H104.028C104.23 17.7866 104.432 17.7866 104.634 17.7805C105.089 17.7674 105.542 17.7069 105.985 17.5999C106.372 17.5115 106.743 17.3616 107.083 17.1559C107.373 16.9775 107.612 16.7268 107.776 16.4283C107.868 16.2586 107.945 16.0805 108.004 15.8965C108.123 15.5274 108.195 15.1445 108.217 14.7572C108.267 14.1683 108.251 13.5757 108.169 12.9903C108.124 12.6836 108.043 12.3832 107.928 12.0952C107.739 11.6118 107.374 11.2176 106.907 10.9912C106.647 10.8609 106.374 10.7594 106.092 10.6885C105.678 10.5833 105.255 10.5221 104.829 10.5059C104.471 10.4958 104.113 10.4837 103.755 10.4826C102.907 10.4826 102.054 10.4857 101.203 10.4857H101.204Z" fill="#0E477C"/>
<path d="M65.8052 19.6827C65.8052 15.1417 65.8052 10.6007 65.8052 6.0597C65.8052 5.95879 65.8052 5.84678 65.8052 5.74082C65.8079 5.72177 65.8172 5.70424 65.8313 5.69119C65.8455 5.67814 65.8637 5.67037 65.8829 5.66917C65.9117 5.66532 65.9406 5.66296 65.9697 5.66211H85.7099C85.8108 5.66211 85.9228 5.66211 86.0287 5.66211C86.0469 5.66774 86.0633 5.67794 86.0764 5.69172C86.0894 5.7055 86.0987 5.72241 86.1034 5.74082C86.1034 5.79935 86.1034 5.85687 86.1034 5.9154V10.2142C86.1034 10.2626 86.1034 10.3151 86.1034 10.3595C86.1034 10.4483 86.0691 10.4796 85.9793 10.4816C85.8723 10.4816 85.7664 10.4816 85.6594 10.4816H71.77C71.6086 10.4816 71.6005 10.4937 71.5975 10.6693V10.7278C71.5975 12.6835 71.5975 14.6395 71.5975 16.5958C71.598 16.6533 71.603 16.7107 71.6126 16.7674C71.6126 16.7825 71.6338 16.7986 71.6489 16.8067C71.6661 16.8155 71.6851 16.8203 71.7044 16.8208C71.8053 16.8208 71.8982 16.8208 71.9951 16.8208H84.6382C84.7391 16.8208 84.8511 16.8208 84.9571 16.8279C84.9762 16.8299 84.9941 16.8384 85.0077 16.852C85.0213 16.8656 85.0298 16.8835 85.0317 16.9026C85.0317 16.951 85.0317 17.0035 85.0317 17.0479V21.4052C85.0317 21.4537 85.0317 21.5021 85.0317 21.5505C85.031 21.5748 85.0207 21.5978 85.0031 21.6146C84.9856 21.6314 84.9622 21.6406 84.9379 21.6403C84.837 21.6403 84.7441 21.6403 84.6473 21.6403H72.0062C71.8992 21.6403 71.7922 21.6403 71.6863 21.6403C71.6743 21.6397 71.6623 21.6416 71.6512 21.6461C71.6401 21.6505 71.63 21.6574 71.6219 21.6662C71.6137 21.6749 71.6075 21.6854 71.6038 21.6968C71.6001 21.7082 71.599 21.7203 71.6005 21.7322C71.6005 21.8102 71.6005 21.8879 71.6005 21.9653V28.5588C71.6005 28.6466 71.6005 28.7334 71.6076 28.8202C71.6108 28.8391 71.6201 28.8565 71.6342 28.8696C71.6482 28.8827 71.6661 28.8909 71.6853 28.8928C71.7862 28.8928 71.878 28.8928 71.9749 28.8928H86.5626C86.8037 28.8928 86.8007 28.8837 86.7997 29.131V33.4893C86.7997 33.5367 86.7997 33.5852 86.7997 33.6336C86.7961 33.6524 86.7873 33.6697 86.7743 33.6836C86.7612 33.6976 86.7445 33.7075 86.726 33.7123H86.6393H66.2038C66.0968 33.7123 65.9909 33.7123 65.8849 33.7053C65.8657 33.7034 65.8477 33.6948 65.8342 33.6809C65.8207 33.6671 65.8126 33.6489 65.8112 33.6296C65.8112 33.5428 65.8112 33.456 65.8112 33.3682C65.8112 32.1189 65.8112 30.87 65.8112 29.6214L65.8052 19.6827Z" fill="#0E477C"/>
<path d="M131.616 17.7442C131.651 17.8264 131.701 17.9017 131.763 17.9662L134.772 21.8442L141.557 30.5861L143.818 33.5025C143.86 33.5559 143.898 33.6114 143.938 33.6659C143.953 33.6871 143.938 33.7335 143.91 33.7345C143.862 33.7345 143.809 33.7406 143.765 33.7406H137.34C137.302 33.7406 137.262 33.7406 137.224 33.7406C137.184 33.7449 137.144 33.7376 137.108 33.7197C137.072 33.7019 137.043 33.6741 137.022 33.6397C136.879 33.4449 136.732 33.2512 136.588 33.0574C133.743 29.2228 130.898 25.3909 128.052 21.5617C128.012 21.5072 127.97 21.4547 127.929 21.4012C127.919 21.3911 127.906 21.3844 127.892 21.3822C127.878 21.38 127.864 21.3825 127.851 21.3891C127.802 21.4345 127.75 21.4799 127.705 21.5284L125.772 23.5395C125.543 23.777 125.315 24.0125 125.086 24.2459C125.061 24.2685 125.041 24.2963 125.028 24.3273C125.015 24.3583 125.008 24.3918 125.009 24.4255C125.009 24.5133 125.009 24.6001 125.009 24.6869C125.009 27.5797 125.009 30.4748 125.009 33.3723C125.009 33.7668 125.05 33.7325 124.653 33.7325H119.58C119.492 33.7325 119.405 33.7325 119.318 33.7325C119.294 33.731 119.272 33.7203 119.255 33.7026C119.239 33.685 119.23 33.6617 119.23 33.6377C119.23 33.56 119.23 33.4823 119.23 33.4046V5.98605C119.23 5.90835 119.23 5.83065 119.23 5.75295C119.232 5.72795 119.244 5.70469 119.263 5.68824C119.282 5.67179 119.306 5.66349 119.331 5.66516C119.409 5.66516 119.486 5.66516 119.563 5.66516H124.678C124.765 5.66516 124.852 5.66516 124.939 5.67121C124.958 5.67335 124.976 5.68143 124.99 5.6943C125.004 5.70716 125.014 5.72415 125.018 5.74286C125.018 5.83065 125.025 5.91743 125.025 6.00422C125.025 6.79872 125.025 7.59256 125.025 8.38572C125.025 11.4453 125.025 14.5063 125.025 17.5686C125.025 17.6695 125.025 17.7624 125.034 17.8582C125.034 17.8703 125.057 17.8835 125.071 17.8925C125.085 17.9016 125.089 17.8925 125.094 17.8865C125.161 17.8169 125.229 17.7472 125.296 17.6756L127.847 14.8117C129.664 12.7733 131.48 10.7346 133.296 8.69551L135.828 5.85386C136.01 5.65204 135.974 5.66919 136.25 5.66919H142.527C142.594 5.66968 142.662 5.67372 142.729 5.6813C142.737 5.6813 142.752 5.71965 142.746 5.72772C142.716 5.77523 142.682 5.82043 142.645 5.86294C142.241 6.29686 141.84 6.73044 141.441 7.16368L133.698 15.5141L131.781 17.5817C131.715 17.6302 131.666 17.6887 131.616 17.7442Z" fill="#0E477C"/>
<path d="M153.047 19.6958V33.345C153.047 33.4459 153.047 33.5388 153.047 33.6346C153.047 33.6982 153.003 33.7355 152.933 33.7355H147.584C147.226 33.7355 147.253 33.7598 147.253 33.4086C147.253 24.2701 147.253 15.1316 147.253 5.99309C147.253 5.6399 147.213 5.65706 147.574 5.65706H152.746C153.08 5.65706 153.049 5.64696 153.049 5.95474C153.048 10.5368 153.047 15.1171 153.047 19.6958Z" fill="#0E477C"/>
<path d="M51.6232 19.6968V6.15557C51.6232 6.06879 51.6232 5.98201 51.6232 5.89421C51.6232 5.69239 51.6394 5.67322 51.8311 5.67221C52.5092 5.67221 53.1874 5.67221 53.8655 5.67221C53.9136 5.6731 53.9616 5.6785 54.0088 5.68836C54.0265 5.69571 54.0409 5.70937 54.0491 5.7267C54.0581 5.74381 54.0626 5.7629 54.0623 5.7822C54.0623 5.86899 54.0623 5.95577 54.0623 6.04356V33.3834C54.0623 33.4712 54.0623 33.5579 54.0623 33.6447C54.0593 33.6693 54.0473 33.692 54.0287 33.7084C54.0101 33.7248 53.9861 33.7337 53.9613 33.7335C53.9139 33.7335 53.8655 33.7335 53.817 33.7335C53.1773 33.7335 52.5375 33.7335 51.8997 33.7335C51.6192 33.7335 51.6202 33.7103 51.6212 33.4601V19.6968H51.6232Z" fill="#828282"/>
<path d="M121.484 49.6119V46.8822C121.484 46.7944 121.484 46.7076 121.49 46.6209C121.492 46.5971 121.503 46.575 121.521 46.5585C121.538 46.5421 121.561 46.5323 121.585 46.5311C121.623 46.5311 121.662 46.5311 121.701 46.5311H122.863C122.902 46.5311 122.94 46.5311 122.979 46.5381C123.003 46.5415 123.026 46.5537 123.042 46.5722C123.058 46.5908 123.066 46.6145 123.066 46.639C123.066 46.7399 123.066 46.8328 123.066 46.9286C123.066 47.0063 123.066 47.084 123.066 47.1607C123.066 47.1749 123.086 47.189 123.099 47.2001C123.103 47.2022 123.108 47.2033 123.112 47.2033C123.117 47.2033 123.121 47.2022 123.126 47.2001C123.176 47.1557 123.226 47.1123 123.275 47.0649C123.413 46.9287 123.564 46.8069 123.727 46.7016C123.973 46.545 124.256 46.4547 124.547 46.4392C124.673 46.4291 124.799 46.4392 124.925 46.4342C125.138 46.4376 125.35 46.4761 125.55 46.5482C125.848 46.645 126.107 46.8319 126.293 47.083L126.431 47.2687C126.434 47.2731 126.437 47.2768 126.441 47.2796C126.445 47.2823 126.45 47.2841 126.455 47.2847C126.459 47.2853 126.464 47.2847 126.469 47.283C126.473 47.2812 126.478 47.2784 126.481 47.2748C126.558 47.2011 126.632 47.1254 126.707 47.0497C126.947 46.8083 127.243 46.6301 127.569 46.5311C127.762 46.4668 127.964 46.4328 128.168 46.4301C128.41 46.4181 128.653 46.4392 128.89 46.4927C129.068 46.5374 129.24 46.6052 129.401 46.6945C129.608 46.8131 129.786 46.9755 129.923 47.1705C130.06 47.3655 130.152 47.5881 130.193 47.8227C130.233 48.0126 130.252 48.206 130.251 48.3999C130.251 49.7454 130.251 51.0909 130.251 52.4364C130.251 52.504 130.251 52.5716 130.243 52.6382C130.239 52.6571 130.23 52.6744 130.216 52.6873C130.201 52.7002 130.183 52.7082 130.164 52.7098C130.145 52.7128 130.126 52.7149 130.107 52.7159H128.769C128.74 52.7156 128.712 52.7101 128.685 52.6997C128.667 52.6917 128.653 52.6773 128.646 52.6594C128.639 52.6311 128.635 52.6019 128.635 52.5726C128.635 52.4273 128.635 52.283 128.635 52.1377C128.635 51.0149 128.635 49.8917 128.635 48.7682C128.635 48.6805 128.635 48.5937 128.635 48.5069C128.63 48.3556 128.578 48.2096 128.486 48.0892C128.394 47.9688 128.267 47.8799 128.123 47.8348C127.967 47.7798 127.8 47.7619 127.636 47.7823C127.491 47.7956 127.35 47.836 127.219 47.9014C127.091 47.9714 126.98 48.0683 126.893 48.1856C126.805 48.3028 126.745 48.4376 126.715 48.5806C126.676 48.7506 126.658 48.9248 126.661 49.0992C126.661 50.1756 126.661 51.2503 126.661 52.3233C126.661 52.4101 126.661 52.4979 126.661 52.5847C126.661 52.6715 126.629 52.7159 126.517 52.7169H125.205C125.176 52.7181 125.147 52.714 125.12 52.7048C125.094 52.694 125.072 52.6748 125.059 52.6503C125.049 52.6232 125.045 52.5943 125.047 52.5655C125.047 52.4787 125.047 52.391 125.047 52.3042V48.7501C125.047 48.6441 125.047 48.5372 125.037 48.4312C125.028 48.2939 124.978 48.1624 124.893 48.0543C124.808 47.9461 124.692 47.8664 124.56 47.8257C124.293 47.73 123.999 47.7369 123.736 47.8449C123.515 47.9263 123.334 48.0906 123.231 48.3031C123.154 48.4488 123.11 48.6096 123.101 48.7743C123.101 48.8904 123.093 49.0064 123.093 49.1224V52.3516C123.093 52.4384 123.093 52.5252 123.086 52.6119C123.084 52.6359 123.073 52.6584 123.056 52.6752C123.039 52.6921 123.016 52.7022 122.992 52.7038H122.934H121.622C121.593 52.7055 121.564 52.7011 121.537 52.6907C121.525 52.6847 121.514 52.6762 121.505 52.6658C121.496 52.6554 121.489 52.6432 121.485 52.6301C121.477 52.5443 121.474 52.4565 121.474 52.3698L121.484 49.6119Z" fill="#828282"/>
<path d="M79.9883 49.63V46.8711C79.9883 46.7843 79.9883 46.6976 79.9964 46.6098C79.9994 46.5909 80.0083 46.5735 80.022 46.56C80.0356 46.5466 80.0531 46.5379 80.072 46.5351C80.0911 46.5317 80.1103 46.5294 80.1296 46.528H81.4656C81.5524 46.528 81.5938 46.5684 81.5958 46.6481C81.5958 46.7833 81.5958 46.9186 81.5958 47.0518C81.5965 47.0898 81.6012 47.1277 81.6099 47.1648C81.6156 47.171 81.6227 47.1757 81.6306 47.1787C81.6385 47.1817 81.647 47.1828 81.6553 47.1819C81.728 47.1184 81.7976 47.0518 81.8672 46.9801C82.0112 46.8363 82.1754 46.7142 82.3546 46.6178C82.5951 46.4901 82.8624 46.4209 83.1347 46.416C83.3764 46.4038 83.6188 46.4214 83.8562 46.4685C84.2685 46.5515 84.6312 46.7942 84.8653 47.1436L84.9319 47.2384C84.9378 47.2462 84.9455 47.2525 84.9542 47.2568C84.963 47.2611 84.9726 47.2633 84.9824 47.2633C84.9921 47.2633 85.0017 47.2611 85.0105 47.2568C85.0192 47.2525 85.0269 47.2462 85.0328 47.2384C85.0984 47.1668 85.16 47.0921 85.2346 47.0255C85.4699 46.7939 85.7565 46.621 86.0712 46.521C86.2649 46.4591 86.4664 46.4252 86.6696 46.4201C86.9115 46.4105 87.1538 46.4298 87.3911 46.4776C88.0874 46.6421 88.5294 47.0639 88.703 47.7602C88.7448 47.9295 88.7651 48.1034 88.7635 48.2778C88.7635 48.5685 88.7635 48.8581 88.7635 49.1487V52.4303C88.7635 52.7078 88.7706 52.7068 88.4981 52.7068H87.3941C87.3363 52.708 87.2785 52.7036 87.2216 52.6937C87.2082 52.6895 87.1958 52.6827 87.1852 52.6734C87.1746 52.6642 87.166 52.6529 87.16 52.6402C87.1503 52.6131 87.1465 52.5842 87.1489 52.5554C87.1489 52.4545 87.1489 52.3617 87.1489 52.2648V48.7511C87.1489 48.6502 87.1489 48.5573 87.1439 48.4615C87.1375 48.3197 87.0878 48.1833 87.0016 48.0705C86.9154 47.9578 86.7967 47.8741 86.6615 47.8308C86.5249 47.7798 86.3795 47.7562 86.2337 47.7614C86.0879 47.7665 85.9445 47.8004 85.8119 47.8611C85.6543 47.9267 85.5168 48.0326 85.4131 48.168C85.3093 48.3035 85.2429 48.4639 85.2205 48.633C85.1887 48.8139 85.1735 48.9973 85.1751 49.181C85.1751 50.2365 85.1751 51.2917 85.1751 52.3466C85.1751 52.7401 85.2114 52.7058 84.8189 52.7068C84.4993 52.7068 84.1795 52.7068 83.8592 52.7068C83.7926 52.7068 83.725 52.7068 83.6574 52.6977C83.6386 52.6942 83.6215 52.6846 83.6087 52.6704C83.5959 52.6561 83.5882 52.6381 83.5868 52.619C83.5868 52.5898 83.5807 52.5615 83.5807 52.5322C83.5807 52.4545 83.5807 52.3778 83.5807 52.3001C83.5807 51.0993 83.5807 49.8991 83.5807 48.6996C83.5866 48.5633 83.5702 48.427 83.5323 48.296C83.4999 48.1887 83.4425 48.0907 83.3648 48.0099C83.2871 47.9292 83.1912 47.8682 83.0852 47.8318C82.8091 47.731 82.505 47.7389 82.2346 47.854C82.1034 47.9058 81.9857 47.9867 81.8903 48.0905C81.7949 48.1943 81.7242 48.3184 81.6836 48.4534C81.6332 48.5904 81.6075 48.7353 81.6079 48.8813C81.6079 48.9872 81.6079 49.0942 81.6079 49.2002V52.3728C81.6079 52.4596 81.6079 52.5464 81.5998 52.6331C81.596 52.6521 81.5862 52.6693 81.5718 52.6822C81.5575 52.6951 81.5393 52.703 81.5201 52.7048C81.4818 52.7048 81.4434 52.7119 81.4051 52.7119C81.0014 52.7119 80.5917 52.7119 80.1851 52.7119C80.1368 52.7112 80.0888 52.7055 80.0418 52.6947C80.0327 52.6915 80.0244 52.6861 80.0178 52.6791C80.0111 52.6721 80.0062 52.6636 80.0034 52.6543C79.9955 52.5971 79.9912 52.5395 79.9903 52.4818C79.9903 52.1044 79.9903 51.726 79.9903 51.3485L79.9883 49.63Z" fill="#828282"/>
<path d="M46.7448 48.5321C46.7448 49.8103 46.7448 51.0885 46.7448 52.3667C46.7448 52.4676 46.7378 52.5595 46.7307 52.6553C46.7307 52.6705 46.7075 52.6866 46.6913 52.6957C46.6736 52.7035 46.6543 52.7073 46.6348 52.7068H45.2695C45.2498 52.7081 45.2301 52.7047 45.212 52.6967C45.1878 52.6836 45.1605 52.6685 45.1595 52.6341C45.1535 52.4989 45.1474 52.3647 45.1383 52.2305C45.1383 52.2174 45.1141 52.2043 45.098 52.1952C45.0818 52.1861 45.0778 52.1952 45.0717 52.2033C45.0417 52.2272 45.014 52.2539 44.989 52.283C44.9043 52.3889 44.807 52.4841 44.6994 52.5665C44.4584 52.7638 44.1687 52.8924 43.8608 52.9389C43.766 52.9574 43.6704 52.9708 43.5742 52.9793C43.1471 53.0052 42.7209 52.9149 42.3411 52.7179C42.075 52.577 41.8392 52.3854 41.6468 52.1538C41.2888 51.7308 41.0412 51.2257 40.9263 50.6835C40.8459 50.3346 40.8099 49.9769 40.8193 49.6189C40.8456 48.9842 40.9596 48.3707 41.2765 47.8086C41.474 47.4408 41.7475 47.1192 42.0787 46.8651C42.4492 46.5776 42.9044 46.4208 43.3734 46.419C43.5571 46.4124 43.741 46.4269 43.9213 46.4624C44.3418 46.55 44.719 46.7803 44.989 47.1143C45.0121 47.1453 45.0378 47.1743 45.0657 47.2011C45.0758 47.2092 45.1 47.2011 45.1171 47.2011C45.1343 47.2011 45.1383 47.191 45.1383 47.1839C45.1434 47.1163 45.1484 47.0497 45.1484 46.9821C45.1484 46.2273 45.1484 45.4725 45.1484 44.7177C45.1484 44.641 45.1484 44.5633 45.1484 44.4856C45.1484 44.3796 45.1847 44.3433 45.2826 44.3393H45.3401H46.5602C46.5988 44.3379 46.6375 44.3416 46.6752 44.3504C46.6896 44.3531 46.7027 44.3603 46.7127 44.371C46.7227 44.3817 46.729 44.3954 46.7307 44.4099C46.7307 44.4866 46.7418 44.5643 46.7418 44.641C46.7418 45.4927 46.7418 46.344 46.7418 47.195L46.7448 48.5321ZM45.1535 49.7208C45.1424 49.6058 45.1232 49.4716 45.1161 49.3374C45.0969 49.0958 45.0386 48.859 44.9436 48.6361C44.8727 48.4558 44.7702 48.2898 44.6408 48.1456C44.5393 48.0313 44.4157 47.9387 44.2774 47.8736C44.1391 47.8084 43.989 47.7719 43.8362 47.7663C43.6834 47.7607 43.531 47.7862 43.3884 47.8412C43.2457 47.8961 43.1156 47.9795 43.0061 48.0861C42.7923 48.2991 42.6369 48.5635 42.555 48.854C42.4096 49.3488 42.3926 49.8725 42.5056 50.3758C42.5669 50.6608 42.6902 50.9289 42.8668 51.1608C42.9642 51.291 43.0879 51.3992 43.23 51.4782C43.372 51.5572 43.5292 51.6054 43.6911 51.6195C43.8531 51.6336 44.0162 51.6133 44.1697 51.56C44.3233 51.5067 44.4639 51.4216 44.5823 51.3102C44.7348 51.1607 44.8571 50.9832 44.9426 50.7875C45.0949 50.4555 45.1242 50.0993 45.1535 49.7208Z" fill="#828282"/>
<path d="M19.1045 50.0518V51.5039C19.1045 51.5615 19.1045 51.62 19.1045 51.6775C19.0953 51.8084 19.1125 51.9399 19.1552 52.064C19.1978 52.1881 19.265 52.3024 19.3528 52.4C19.3863 52.4347 19.4154 52.4733 19.4395 52.5151C19.4549 52.55 19.4618 52.588 19.4597 52.6261C19.4609 52.6406 19.4569 52.655 19.4484 52.6669C19.4399 52.6787 19.4274 52.6871 19.4133 52.6907C19.3758 52.6989 19.3376 52.7036 19.2993 52.7048C18.8149 52.7048 18.3315 52.7048 17.8472 52.7048C17.8181 52.7045 17.7891 52.7021 17.7604 52.6977C17.7414 52.6949 17.7233 52.6877 17.7075 52.6766C17.6917 52.6656 17.6787 52.6511 17.6696 52.6341C17.6124 52.5441 17.5736 52.4436 17.5555 52.3385C17.5492 52.2907 17.539 52.2434 17.5253 52.1972C17.5253 52.1861 17.493 52.178 17.4768 52.179C17.4577 52.182 17.4398 52.1904 17.4254 52.2033C17.3648 52.2517 17.3053 52.3011 17.2468 52.3516C16.8698 52.691 16.3965 52.9044 15.8925 52.9621C15.4078 53.0304 14.9148 52.9176 14.508 52.6452C14.2073 52.4447 13.9846 52.1468 13.8773 51.8016C13.7247 51.3385 13.7272 50.8383 13.8844 50.3768C13.9878 50.0611 14.1916 49.7879 14.4646 49.5987C14.7339 49.4077 15.0413 49.2773 15.3658 49.2163C15.726 49.1446 16.0863 49.073 16.4516 49.0286C16.6527 48.9996 16.8518 48.9585 17.048 48.9055C17.1873 48.8618 17.3126 48.7821 17.4112 48.6744C17.4391 48.646 17.4598 48.6114 17.4718 48.5735C17.5656 48.2708 17.5081 47.968 17.2074 47.8318C17.1279 47.7957 17.0447 47.7686 16.9592 47.7511C16.6819 47.7063 16.399 47.709 16.1226 47.7591C16.0751 47.7686 16.0283 47.7811 15.9823 47.7965C15.8688 47.8248 15.7654 47.884 15.6834 47.9676C15.6015 48.0511 15.5443 48.1557 15.5181 48.2697C15.497 48.3444 15.4778 48.4191 15.4566 48.4938C15.4502 48.512 15.4383 48.5277 15.4226 48.5389C15.4069 48.5501 15.3881 48.5562 15.3688 48.5563C15.3496 48.5563 15.3305 48.5563 15.3113 48.5563H14.061C14.0229 48.5551 13.9851 48.5483 13.949 48.5362C13.9349 48.5311 13.9248 48.5089 13.9157 48.4928C13.9103 48.4847 13.9078 48.4751 13.9086 48.4655C13.9364 48.1666 14.0124 47.8743 14.1337 47.5997C14.3344 47.1643 14.6961 46.8235 15.1428 46.6491C15.4839 46.5095 15.8471 46.4316 16.2154 46.419C16.4566 46.411 16.6998 46.4079 16.941 46.419C17.3088 46.4344 17.6717 46.509 18.0157 46.64C18.2608 46.7333 18.4814 46.8814 18.6605 47.0729C18.8831 47.3069 19.0246 47.6062 19.0642 47.9266C19.0943 48.1474 19.1088 48.3699 19.1076 48.5927C19.1005 49.0861 19.1045 49.5705 19.1045 50.0518ZM17.5142 50.2052H17.5051C17.5051 50.1043 17.5051 49.9933 17.5051 49.8873C17.5043 49.8779 17.5014 49.8688 17.4967 49.8606C17.4919 49.8525 17.4853 49.8455 17.4774 49.8403C17.4696 49.835 17.4606 49.8317 17.4512 49.8304C17.4419 49.8291 17.4323 49.8299 17.4233 49.8329C17.3305 49.8591 17.2387 49.8904 17.1448 49.9106C16.8609 49.9698 16.577 50.0269 16.2931 50.0821C16.1419 50.1137 15.9937 50.1583 15.8501 50.2153C15.7501 50.2525 15.659 50.3102 15.5827 50.3848C15.474 50.4835 15.4069 50.6199 15.395 50.7663C15.39 50.8628 15.39 50.9594 15.395 51.0559C15.399 51.1284 15.4172 51.1995 15.4488 51.265C15.4803 51.3304 15.5244 51.389 15.5787 51.4373C15.7135 51.5654 15.8895 51.6412 16.0752 51.6513C16.2094 51.6653 16.3446 51.6653 16.4788 51.6513C16.6426 51.6359 16.8005 51.583 16.9405 51.4968C17.0805 51.4105 17.1988 51.2931 17.2861 51.1538C17.3975 50.9724 17.4665 50.7682 17.4879 50.5564C17.5091 50.4393 17.5081 50.3223 17.5142 50.2072V50.2052Z" fill="#828282"/>
<path d="M102.476 49.9893C102.476 50.5604 102.476 51.1316 102.476 51.7048C102.468 51.8404 102.491 51.9761 102.544 52.1013C102.592 52.1958 102.647 52.2871 102.707 52.3748C102.733 52.4152 102.773 52.4465 102.801 52.4848C102.818 52.5085 102.829 52.536 102.832 52.5649C102.836 52.5938 102.832 52.6231 102.822 52.6503C102.819 52.659 102.815 52.6671 102.809 52.6741C102.803 52.681 102.796 52.6867 102.788 52.6907C102.751 52.7014 102.713 52.7071 102.675 52.7078H101.222H101.164C101.14 52.706 101.117 52.6988 101.096 52.6865C101.075 52.6743 101.057 52.6574 101.044 52.6372C100.999 52.5736 100.968 52.5015 100.952 52.4253C100.937 52.3597 100.926 52.2931 100.912 52.2234C100.912 52.1982 100.912 52.1629 100.871 52.1629C100.853 52.1629 100.834 52.1697 100.82 52.1821C100.703 52.2977 100.577 52.404 100.443 52.4999C100.199 52.6784 99.9257 52.812 99.6353 52.8945C99.2061 53.0239 98.7471 53.0147 98.3234 52.8683C98.0314 52.7755 97.7706 52.604 97.5697 52.3725C97.3689 52.1411 97.2358 51.8587 97.1852 51.5564C97.1078 51.1851 97.1272 50.8 97.2417 50.4383C97.3587 50.0555 97.616 49.7311 97.9622 49.5301C98.2032 49.3858 98.467 49.2834 98.7422 49.2274C98.9602 49.181 99.1792 49.1457 99.3982 49.1063C99.712 49.0498 100.03 49.0205 100.341 48.9388C100.462 48.9055 100.576 48.8523 100.68 48.7814C101.007 48.5674 100.964 48.0245 100.585 47.8469C100.505 47.8119 100.422 47.7861 100.337 47.7702C100.241 47.7524 100.145 47.7396 100.049 47.7319C99.8267 47.7337 99.605 47.7567 99.3871 47.8005C99.2684 47.8283 99.1596 47.8878 99.0723 47.9728C98.985 48.0578 98.9225 48.165 98.8916 48.2829C98.8684 48.3565 98.8522 48.4322 98.829 48.5059C98.8232 48.5245 98.8116 48.5408 98.7961 48.5525C98.7805 48.5643 98.7617 48.5709 98.7422 48.5715C98.7133 48.573 98.6844 48.573 98.6554 48.5715H97.4647C97.4265 48.5712 97.3885 48.5658 97.3517 48.5553C97.3429 48.5519 97.3349 48.5466 97.3283 48.5398C97.3216 48.533 97.3166 48.5249 97.3133 48.516C97.3031 48.4893 97.2986 48.4608 97.3002 48.4322C97.3517 47.8621 97.5495 47.3616 97.9965 46.9801C98.2361 46.7817 98.5166 46.6387 98.8179 46.5613C99.1059 46.4758 99.4045 46.4316 99.7049 46.4301C99.8987 46.4301 100.092 46.4301 100.286 46.4301C100.625 46.4412 100.96 46.5027 101.281 46.6128C101.456 46.6702 101.623 46.7514 101.776 46.854C102.109 47.079 102.339 47.4265 102.417 47.8207C102.459 48.0099 102.479 48.2032 102.477 48.3969C102.477 48.9287 102.477 49.4615 102.477 49.9933L102.476 49.9893ZM100.901 50.1528C100.901 50.066 100.901 49.9883 100.901 49.9116C100.901 49.8349 100.871 49.8107 100.8 49.8288C100.605 49.8921 100.406 49.9429 100.204 49.9812C100.024 50.0135 99.8442 50.0488 99.6646 50.0821C99.4639 50.1183 99.2704 50.1864 99.0914 50.2839C99.0152 50.3267 98.9486 50.3846 98.8955 50.454C98.8424 50.5234 98.804 50.6029 98.7826 50.6876C98.7647 50.7725 98.7559 50.8591 98.7564 50.9459C98.7612 51.1252 98.8321 51.2965 98.9553 51.4268C99.0786 51.5572 99.2456 51.6374 99.4244 51.6523C99.5787 51.6612 99.7335 51.6595 99.8876 51.6472C100.111 51.6232 100.32 51.526 100.482 51.3707C100.672 51.1896 100.801 50.953 100.849 50.6946C100.892 50.5173 100.909 50.3349 100.901 50.1528Z" fill="#828282"/>
<path d="M158.17 49.9378C158.17 50.509 158.17 51.0801 158.17 51.6533C158.169 51.7497 158.177 51.8459 158.194 51.9409C158.224 52.0935 158.291 52.2364 158.389 52.3576C158.425 52.4031 158.467 52.4444 158.5 52.4919C158.513 52.5123 158.521 52.5352 158.525 52.5592C158.529 52.5831 158.528 52.6076 158.522 52.6311C158.517 52.6584 158.506 52.6886 158.471 52.6947C158.434 52.7026 158.396 52.707 158.357 52.7078H156.934C156.906 52.7093 156.877 52.7093 156.848 52.7078C156.828 52.7062 156.81 52.7002 156.793 52.6903C156.776 52.6803 156.762 52.6666 156.752 52.6503C156.702 52.5789 156.667 52.4977 156.651 52.4121C156.636 52.3365 156.615 52.2628 156.596 52.1871C156.589 52.1589 156.555 52.1548 156.527 52.1811C156.469 52.2325 156.414 52.287 156.355 52.3365C156.073 52.5899 155.739 52.7781 155.376 52.8874C155.051 52.9845 154.709 53.0076 154.373 52.955C154.094 52.9176 153.828 52.8164 153.594 52.6594C153.393 52.5223 153.224 52.3429 153.099 52.1337C152.974 51.9246 152.897 51.6907 152.872 51.4484C152.864 51.3818 152.857 51.3142 152.85 51.2466C152.841 51.199 152.838 51.1507 152.838 51.1023C152.849 50.8415 152.895 50.5834 152.977 50.3354C153.088 50.044 153.282 49.7917 153.535 49.6098C153.795 49.4228 154.092 49.2928 154.406 49.2284C154.774 49.1487 155.145 49.0801 155.516 49.0336C155.717 49.0047 155.916 48.9646 156.112 48.9136C156.263 48.872 156.397 48.7832 156.493 48.6603C156.531 48.6163 156.558 48.5641 156.572 48.5079C156.61 48.3765 156.602 48.2361 156.548 48.1103C156.5 47.9923 156.409 47.8967 156.294 47.8429C156.206 47.8033 156.113 47.7741 156.018 47.7561C155.741 47.7081 155.457 47.7122 155.182 47.7682C155.05 47.7814 154.926 47.8329 154.824 47.9163C154.722 47.9998 154.646 48.1115 154.607 48.2375C154.588 48.293 154.573 48.3485 154.558 48.404C154.552 48.4323 154.545 48.4603 154.536 48.4877C154.53 48.5064 154.52 48.523 154.505 48.5357C154.49 48.5484 154.472 48.5566 154.453 48.5594C154.415 48.5641 154.376 48.5668 154.337 48.5674H153.183C153.144 48.5668 153.105 48.5641 153.067 48.5594C153.049 48.5531 153.033 48.5421 153.021 48.5275C153.01 48.5128 153.002 48.4952 153 48.4766C152.998 48.4477 152.998 48.4187 153 48.3898C153.031 48.1101 153.107 47.8373 153.227 47.5825C153.397 47.2316 153.674 46.9431 154.017 46.7581C154.266 46.627 154.533 46.5354 154.81 46.4867C155.25 46.4124 155.697 46.3954 156.141 46.4362C156.422 46.4538 156.698 46.5087 156.964 46.5997C157.147 46.662 157.322 46.7482 157.483 46.856C157.79 47.0653 158.011 47.3791 158.104 47.739C158.153 47.9163 158.176 48.0999 158.173 48.2839C158.173 48.7006 158.173 49.1164 158.173 49.5321V49.9358L158.17 49.9378ZM156.597 50.2183C156.597 50.1094 156.597 50.0317 156.597 49.955C156.597 49.9257 156.597 49.8974 156.59 49.8682C156.587 49.8545 156.578 49.8428 156.566 49.8355C156.554 49.8281 156.54 49.8257 156.526 49.8288C156.295 49.8995 156.061 49.9571 155.824 50.0014C155.672 50.0296 155.522 50.0549 155.369 50.0861C155.189 50.1188 155.013 50.1755 154.848 50.2547C154.755 50.2973 154.674 50.3606 154.61 50.4397C154.546 50.5188 154.501 50.6115 154.478 50.7108C154.386 51.0801 154.528 51.4535 154.924 51.6018C155.005 51.6344 155.091 51.6528 155.178 51.6563C155.279 51.6563 155.371 51.6563 155.467 51.6563C155.696 51.6523 155.918 51.5769 156.102 51.4406C156.285 51.3044 156.422 51.1142 156.492 50.8965C156.569 50.6788 156.605 50.4489 156.597 50.2183Z" fill="#828282"/>
<path d="M58.2093 46.419C58.5308 46.4096 58.8519 46.4484 59.1619 46.5341C59.5635 46.6332 59.9358 46.8262 60.2482 47.0973C60.5606 47.3683 60.8043 47.7096 60.9591 48.0932C61.0961 48.4144 61.1832 48.7547 61.2174 49.1023C61.2457 49.3326 61.2598 49.5645 61.2598 49.7965C61.2593 50.1939 61.2002 50.589 61.0842 50.9691C60.9343 51.484 60.637 51.9438 60.2292 52.292C59.8213 52.6401 59.3205 52.8615 58.7885 52.9288C58.5782 52.9621 58.3657 52.9793 58.1528 52.9803C57.8426 52.9765 57.534 52.9359 57.2335 52.8592C56.7125 52.7299 56.2437 52.4439 55.8904 52.0398C55.6085 51.7175 55.4017 51.3366 55.2849 50.9247C55.2187 50.692 55.1731 50.454 55.1487 50.2133C55.1223 50.0021 55.1115 49.7893 55.1164 49.5765C55.1446 49.0528 55.2173 48.5362 55.4393 48.0538C55.617 47.6432 55.8949 47.2838 56.2474 47.0084C56.6 46.733 57.0161 46.5505 57.4575 46.4776C57.7053 46.4317 57.9573 46.412 58.2093 46.419ZM59.6382 49.7128C59.6469 49.4899 59.6275 49.2668 59.5807 49.0488C59.521 48.7236 59.3789 48.4193 59.1679 48.1648C59.0123 47.9747 58.8003 47.839 58.5625 47.7773C58.3655 47.7223 58.1589 47.711 57.957 47.744C57.7076 47.7868 57.4768 47.904 57.295 48.08C57.0795 48.2914 56.9235 48.556 56.843 48.847C56.6961 49.3412 56.679 49.865 56.7935 50.3677C56.8504 50.6437 56.9661 50.9042 57.1326 51.1316C57.4696 51.5847 57.9257 51.7371 58.4656 51.6361C58.7668 51.5799 59.0348 51.4101 59.2144 51.1619C59.3508 50.9855 59.4556 50.7868 59.5242 50.5746C59.6138 50.2965 59.6525 50.0046 59.6382 49.7128Z" fill="#828282"/>
<path d="M0.908004 50.9076H1.57603C1.60028 50.9049 1.62468 50.911 1.64471 50.925C1.66475 50.9389 1.67907 50.9596 1.68502 50.9832C1.70419 51.0387 1.71933 51.0952 1.74355 51.1477C1.77331 51.2169 1.807 51.2842 1.84446 51.3495C1.89895 51.4417 1.97286 51.5208 2.06104 51.5814C2.14922 51.6421 2.24956 51.6828 2.35507 51.7007C2.73469 51.784 3.12784 51.784 3.50747 51.7007C3.64986 51.6698 3.78489 51.6115 3.90506 51.5292C3.97107 51.4876 4.02566 51.4302 4.06389 51.3621C4.10212 51.2941 4.1228 51.2177 4.12404 51.1396C4.12943 51.0623 4.11346 50.985 4.07787 50.9161C4.04227 50.8472 3.98843 50.7895 3.92221 50.7491C3.81486 50.6834 3.69911 50.6325 3.57811 50.5978C3.21786 50.4857 2.85861 50.3717 2.49836 50.2587C2.24003 50.178 1.97968 50.1013 1.72236 50.0185C1.57503 49.9721 1.42971 49.9176 1.28339 49.8672C1.09913 49.8023 0.928178 49.7045 0.778838 49.5786C0.697424 49.5129 0.627513 49.4341 0.57197 49.3454C0.443357 49.14 0.361374 48.9089 0.331802 48.6683C0.297711 48.3698 0.329047 48.0675 0.423631 47.7823C0.543767 47.4207 0.779583 47.1086 1.09469 46.8943C1.38951 46.6891 1.72508 46.5497 2.07857 46.4856C2.49856 46.4087 2.92738 46.3921 3.35207 46.4362C3.67136 46.4597 3.9848 46.5343 4.28045 46.6572C4.63415 46.7951 4.94456 47.025 5.17956 47.3232C5.34959 47.5476 5.4653 47.8084 5.51762 48.0851C5.53982 48.1981 5.54991 48.3141 5.56303 48.4292C5.56266 48.4485 5.5553 48.467 5.54231 48.4813C5.52932 48.4956 5.51158 48.5047 5.49239 48.5069C5.46361 48.5108 5.43464 48.5131 5.4056 48.5139H4.18559C4.15734 48.5139 4.12807 48.5139 4.09881 48.5139C4.07952 48.5137 4.06092 48.5068 4.04606 48.4945C4.0312 48.4822 4.02097 48.4652 4.01707 48.4463C3.99689 48.3626 3.98175 48.2758 3.95652 48.193C3.93135 48.109 3.88976 48.0307 3.83416 47.9628C3.77856 47.8949 3.71005 47.8387 3.6326 47.7975C3.48119 47.71 3.31164 47.6585 3.13713 47.6471C2.98273 47.638 2.82733 47.6411 2.67294 47.6421C2.54677 47.6484 2.42259 47.6761 2.30562 47.7238C2.20445 47.7591 2.11432 47.8203 2.04426 47.9014C1.96527 47.9884 1.92359 48.1029 1.92821 48.2203C1.92811 48.2837 1.94512 48.3459 1.97745 48.4004C2.00977 48.455 2.05621 48.4998 2.11187 48.5301C2.22975 48.597 2.35506 48.6498 2.48524 48.6875L4.32485 49.2183C4.44594 49.2526 4.56603 49.2889 4.68409 49.3323C4.92289 49.4171 5.13925 49.5552 5.3168 49.736C5.5208 49.9454 5.65478 50.2131 5.70026 50.5019C5.72371 50.6156 5.73822 50.731 5.74366 50.847C5.75108 51.3157 5.59437 51.7723 5.30066 52.1377C5.10273 52.3916 4.84033 52.5878 4.5408 52.7058C4.2443 52.8243 3.93353 52.9033 3.61645 52.9409C3.3286 52.98 3.03766 52.9915 2.74761 52.9752C2.31194 52.9634 1.88013 52.8901 1.46503 52.7572C1.26264 52.6906 1.07017 52.5969 0.892867 52.4787C0.575421 52.268 0.338017 51.9567 0.218782 51.5948C0.149673 51.4136 0.113449 51.2215 0.111816 51.0276C0.111816 50.952 0.126953 50.9076 0.235937 50.9076H0.908004Z" fill="#828282"/>
<path d="M171.084 48.5129H170.415C170.39 48.5155 170.366 48.5083 170.347 48.493C170.328 48.4776 170.316 48.4554 170.314 48.4312C170.293 48.3464 170.278 48.2607 170.251 48.1779C170.198 48.0202 170.088 47.8879 169.943 47.8066C169.784 47.7135 169.604 47.6592 169.42 47.6481C169.256 47.636 169.091 47.6421 168.926 47.6481C168.79 47.6563 168.658 47.6931 168.538 47.7561C168.46 47.7936 168.391 47.8473 168.336 47.9135C168.295 47.9613 168.264 48.0174 168.247 48.0781C168.229 48.1387 168.225 48.2024 168.235 48.2647C168.24 48.318 168.258 48.3693 168.287 48.4145C168.316 48.4597 168.354 48.4975 168.4 48.5251C168.517 48.5939 168.642 48.6478 168.773 48.6855C169.385 48.8641 169.999 49.0397 170.611 49.2173C170.732 49.2526 170.853 49.291 170.972 49.3303C171.1 49.3747 171.222 49.4343 171.336 49.5079C171.523 49.6216 171.681 49.7767 171.798 49.9613C171.916 50.1459 171.989 50.355 172.013 50.5725C172.034 50.6867 172.045 50.8025 172.046 50.9187C172.043 51.1026 172.014 51.2851 171.958 51.4605C171.757 52.0499 171.401 52.4929 170.808 52.725C170.528 52.8321 170.236 52.9053 169.938 52.9429C169.66 52.9806 169.379 52.993 169.099 52.9803C168.711 52.9697 168.326 52.9152 167.951 52.8178C167.745 52.7631 167.547 52.6839 167.36 52.5817C167.085 52.4349 166.853 52.2185 166.688 51.9541C166.523 51.6897 166.431 51.3866 166.419 51.0751C166.417 51.0465 166.417 51.0179 166.419 50.9893C166.423 50.9702 166.432 50.9526 166.446 50.9392C166.46 50.9258 166.478 50.9171 166.497 50.9146C166.516 50.9146 166.536 50.9146 166.555 50.9146H167.867H167.895C167.914 50.9152 167.933 50.9213 167.949 50.9322C167.965 50.9432 167.977 50.9584 167.985 50.9762C168.012 51.0488 168.03 51.1245 168.062 51.1952C168.098 51.274 168.141 51.3494 168.191 51.4202C168.3 51.5714 168.463 51.6748 168.647 51.7088C169.035 51.7956 169.438 51.7956 169.827 51.7088C169.979 51.6757 170.122 51.6096 170.246 51.515C170.322 51.4547 170.379 51.3729 170.409 51.2801C170.438 51.1873 170.44 51.0879 170.413 50.9943C170.386 50.9108 170.334 50.8377 170.263 50.7855C170.169 50.7176 170.064 50.6654 169.952 50.6311C169.769 50.5695 169.585 50.511 169.399 50.4535C168.891 50.296 168.384 50.1386 167.876 49.9812C167.765 49.9469 167.658 49.9005 167.549 49.8631C167.367 49.7929 167.199 49.6903 167.054 49.5604C167.001 49.519 166.954 49.4692 166.916 49.4131C166.78 49.2128 166.687 48.9863 166.642 48.7481C166.579 48.3539 166.636 47.9499 166.806 47.5886C166.98 47.2385 167.259 46.9519 167.604 46.7692C167.859 46.63 168.135 46.5336 168.422 46.4836C168.821 46.4146 169.229 46.3993 169.632 46.4382C169.961 46.4615 170.285 46.5378 170.589 46.6643C170.978 46.8173 171.312 47.0834 171.549 47.4281C171.7 47.6539 171.796 47.9121 171.829 48.182C171.876 48.5291 171.93 48.517 171.548 48.515H171.084V48.5129Z" fill="#828282"/>
<path d="M144.459 49.6482V52.291C144.459 52.3587 144.459 52.4263 144.459 52.4929C144.459 52.6947 144.45 52.7038 144.246 52.7048C143.858 52.7048 143.471 52.7048 143.083 52.7048C143.044 52.7048 143.006 52.7048 142.967 52.7048C142.955 52.706 142.942 52.7047 142.93 52.7009C142.918 52.6971 142.907 52.6909 142.898 52.6827C142.889 52.6745 142.881 52.6644 142.875 52.6531C142.87 52.6418 142.867 52.6295 142.867 52.617C142.867 52.5302 142.866 52.4434 142.86 52.3566C142.854 52.2699 142.86 52.2012 142.852 52.1245C142.852 52.1175 142.843 52.1104 142.837 52.1044C142.834 52.1004 142.83 52.0971 142.826 52.0949C142.821 52.0927 142.816 52.0916 142.811 52.0916C142.806 52.0916 142.801 52.0927 142.796 52.0949C142.792 52.0971 142.788 52.1004 142.785 52.1044C142.732 52.1619 142.684 52.2204 142.631 52.2779C142.306 52.6426 141.863 52.8806 141.379 52.95C140.947 53.0204 140.504 52.978 140.093 52.8269C139.865 52.7449 139.656 52.6141 139.483 52.4435C139.31 52.2729 139.176 52.0666 139.09 51.839C138.98 51.5697 138.922 51.2815 138.92 50.9903C138.92 50.9025 138.92 50.8157 138.92 50.7289V46.861C138.92 46.5038 138.894 46.527 139.245 46.527H140.291C140.349 46.5259 140.406 46.531 140.463 46.5421C140.476 46.5456 140.489 46.5524 140.499 46.562C140.509 46.5715 140.517 46.5834 140.521 46.5966C140.531 46.6733 140.536 46.7505 140.534 46.8277C140.534 47.4769 140.534 48.1258 140.534 48.7743C140.534 49.3263 140.534 49.8783 140.534 50.4302C140.531 50.5559 140.536 50.6816 140.55 50.8066C140.567 51.0113 140.653 51.2041 140.794 51.3536C140.924 51.4863 141.094 51.5716 141.278 51.5958C141.47 51.6235 141.665 51.6235 141.857 51.5958C142.095 51.5661 142.317 51.4615 142.491 51.297C142.664 51.1326 142.781 50.917 142.824 50.6815C142.849 50.5386 142.862 50.3937 142.86 50.2486C142.86 49.1446 142.86 48.0407 142.86 46.9367C142.86 46.8499 142.86 46.7631 142.86 46.6753C142.86 46.5553 142.89 46.531 143.021 46.527H144.242C144.29 46.5256 144.338 46.5303 144.385 46.5411C144.398 46.5456 144.41 46.5532 144.419 46.5632C144.429 46.5732 144.436 46.5854 144.44 46.5987C144.449 46.6844 144.452 46.7722 144.453 46.859V49.6482H144.459Z" fill="#828282"/>
<path d="M30.1019 52.7038H29.3471C29.3226 52.7057 29.2982 52.6994 29.2777 52.6859C29.2572 52.6724 29.2419 52.6524 29.2341 52.6291C29.2129 52.5756 29.1927 52.5211 29.1735 52.4666L28.2805 49.9196C27.9326 48.9247 27.5838 47.9293 27.234 46.9337C27.1987 46.8328 27.1694 46.7319 27.1412 46.631C27.1372 46.6191 27.1362 46.6065 27.1382 46.5941C27.1403 46.5818 27.1453 46.5702 27.1528 46.5602C27.1604 46.5503 27.1703 46.5423 27.1816 46.5371C27.1929 46.5318 27.2054 46.5294 27.2179 46.53C27.2572 46.53 27.2956 46.524 27.3339 46.524H28.6124C28.6417 46.524 28.671 46.524 28.7002 46.524C28.7292 46.5241 28.7573 46.5342 28.7797 46.5526C28.8021 46.5709 28.8176 46.5965 28.8234 46.6249C28.9243 46.9488 29.0181 47.2727 29.114 47.5977C29.2976 48.2193 29.4793 48.8409 29.6629 49.4625C29.7941 49.9072 29.926 50.3522 30.0585 50.7976C30.0712 50.8324 30.0868 50.8661 30.1049 50.8985C30.1114 50.9061 30.1203 50.9111 30.1301 50.9126C30.1337 50.9135 30.1373 50.9135 30.1409 50.9126C30.1444 50.9117 30.1476 50.91 30.1503 50.9076C30.1745 50.845 30.2018 50.7824 30.22 50.7178C30.3007 50.4302 30.3794 50.1406 30.4591 49.851C30.6932 49.0034 30.9287 48.155 31.1655 47.306C31.222 47.1042 31.2805 46.8963 31.337 46.6915C31.3451 46.6632 31.3522 46.635 31.3623 46.6087C31.3691 46.5861 31.3822 46.5658 31.4 46.5502C31.4179 46.5347 31.4398 46.5245 31.4632 46.521C31.5018 46.5173 31.5405 46.5156 31.5792 46.5159H32.8911C32.9294 46.5159 32.9678 46.521 33.0061 46.524C33.02 46.5272 33.0323 46.5351 33.0412 46.5462C33.05 46.5574 33.0547 46.5713 33.0545 46.5855C33.0364 46.6511 33.0192 46.7167 32.998 46.7803C32.62 47.8775 32.2409 48.9748 31.8608 50.072L31.0323 52.4737C31.0172 52.5191 30.997 52.5645 30.9839 52.6099C30.9785 52.6391 30.9628 52.6654 30.9396 52.684C30.9165 52.7025 30.8874 52.712 30.8577 52.7108C30.7709 52.7108 30.6831 52.7108 30.5964 52.7108C30.4319 52.7108 30.2664 52.7108 30.1019 52.7108V52.7038Z" fill="#828282"/>
<path d="M111.942 45.7813H111.248C111.224 45.7797 111.202 45.7697 111.185 45.7531C111.167 45.7365 111.157 45.7143 111.154 45.6905C111.154 45.6521 111.154 45.6138 111.154 45.5754V44.534C111.155 44.4955 111.158 44.4571 111.163 44.419C111.167 44.4005 111.177 44.3837 111.191 44.3709C111.205 44.358 111.222 44.3498 111.241 44.3473C111.26 44.3443 111.279 44.3423 111.299 44.3413H112.63C112.658 44.3405 112.687 44.345 112.714 44.3544C112.733 44.3616 112.747 44.3758 112.755 44.3938C112.764 44.4207 112.769 44.449 112.769 44.4775C112.769 44.863 112.769 45.2495 112.769 45.635C112.771 45.6638 112.767 45.6927 112.757 45.7197C112.744 45.7441 112.723 45.7629 112.697 45.7722C112.65 45.7809 112.602 45.7847 112.554 45.7833C112.352 45.7833 112.15 45.7833 111.948 45.7833L111.942 45.7813Z" fill="#828282"/>
</svg>
