<svg width="261" height="80" viewBox="0 0 261 80" fill="none" xmlns="http://www.w3.org/2000/svg">
<path d="M16.0877 0.00830078C16.0877 0.216687 16.0877 0.423627 16.0877 0.632014V40.0316C16.0877 40.185 16.0877 40.3369 16.0877 40.4903C16.0877 40.6119 16.1369 40.6538 16.2715 40.6567H35.8975C36.0422 40.6567 36.1754 40.6567 36.3143 40.6567C36.4156 40.6567 36.459 40.7045 36.459 40.8145C36.459 40.9244 36.459 41.0648 36.459 41.1893C36.459 46.1182 36.459 51.0466 36.459 55.9746C36.459 56.6099 36.5415 56.5274 35.9105 56.5274C24.1039 56.5274 12.2977 56.5274 0.492024 56.5274C0.327711 56.5483 0.160962 56.539 0 56.4999L0 0.00830078H16.0877Z" fill="white"/>
<path d="M57.1849 0.00830078C57.1849 0.202216 57.1994 0.396132 57.1994 0.587153C57.1994 5.51511 57.1994 10.4436 57.1994 15.3725V55.8212C57.1994 56.0021 57.1994 56.183 57.1994 56.3624C57.1994 56.5071 57.1473 56.5506 56.9895 56.5549C56.8781 56.5549 56.7681 56.5549 56.6567 56.5549H41.7368C41.5921 56.5549 41.4604 56.5448 41.3215 56.5375C41.2944 56.5315 41.2696 56.5177 41.2501 56.498C41.2306 56.4782 41.2172 56.4533 41.2115 56.4261C41.2115 56.3711 41.1999 56.3161 41.1985 56.2611C41.1985 56.1077 41.1985 55.9558 41.1985 55.8024C41.1985 42.6962 41.1985 29.5896 41.1985 16.4824C41.1985 15.7386 41.3055 15.8428 40.5646 15.8428C34.1886 15.8428 27.813 15.8428 21.4379 15.8428C20.7505 15.8428 20.8359 15.9311 20.8359 15.2524C20.8359 10.3505 20.8359 5.44951 20.8359 0.549527C20.8359 0.368636 20.8359 0.189192 20.8446 0.00830078L57.1849 0.00830078Z" fill="white"/>
<path d="M260.998 48.4176C260.863 48.387 260.723 48.3787 260.584 48.393H253.247C253.151 48.393 253.052 48.393 252.958 48.393C252.903 48.4007 252.847 48.3908 252.798 48.3648C252.75 48.3388 252.71 48.298 252.686 48.2482C252.64 48.1629 252.589 48.0804 252.541 47.9964L239.462 25.5066L236.895 21.0784C236.831 20.9713 236.766 20.8656 236.698 20.7615C236.688 20.747 236.65 20.7499 236.626 20.7499C236.62 20.7515 236.615 20.7547 236.611 20.759C236.607 20.7633 236.604 20.7687 236.603 20.7745C236.603 20.9192 236.603 21.0523 236.603 21.1913V47.8069C236.603 47.9516 236.603 48.0847 236.603 48.2236C236.603 48.3626 236.552 48.3872 236.419 48.3901H228.646C228.563 48.392 228.48 48.3881 228.397 48.3785C228.377 48.3757 228.357 48.3661 228.343 48.3512C228.328 48.3362 228.319 48.3168 228.316 48.296C228.309 48.2553 228.305 48.2142 228.302 48.173C228.302 48.0471 228.302 47.9226 228.302 47.7982C228.302 34.774 228.302 21.7498 228.302 8.72568C228.302 8.02671 228.203 8.12512 228.881 8.12512C231.352 8.12512 233.825 8.12512 236.299 8.12512C236.409 8.12512 236.52 8.12512 236.632 8.12512C236.687 8.12059 236.743 8.13385 236.79 8.16298C236.838 8.19211 236.875 8.23561 236.896 8.28719C236.948 8.3856 237.008 8.47966 237.063 8.57662C239.475 12.7125 241.887 16.8479 244.298 20.9829L252.453 34.9737C252.522 35.0924 252.598 35.211 252.67 35.3283C252.67 35.3283 252.695 35.3283 252.706 35.3283C252.718 35.3283 252.734 35.3181 252.735 35.3109C252.744 35.2704 252.748 35.2292 252.75 35.1879C252.75 35.0215 252.75 34.8536 252.75 34.6872V8.69818C252.75 8.54478 252.75 8.39284 252.758 8.23944C252.763 8.21222 252.776 8.18724 252.796 8.16857C252.816 8.14991 252.842 8.13867 252.87 8.13669C253.014 8.13669 253.148 8.12656 253.287 8.12656H260.495C260.621 8.12656 260.745 8.12656 260.87 8.12656C260.91 8.11935 260.951 8.1087 260.99 8.09473L260.998 48.4176Z" fill="white"/>
<path d="M159.05 79.2472C159.031 79.2265 159.009 79.2098 158.984 79.1981C158.959 79.1864 158.932 79.1799 158.905 79.1792C158.76 79.1633 158.601 79.1488 158.449 79.1285C158.415 79.1209 158.384 79.1029 158.36 79.077C158.336 79.0512 158.321 79.0186 158.316 78.9838C158.316 78.9288 158.316 78.8738 158.316 78.8188C158.316 78.3456 158.316 77.8739 158.316 77.4021C158.316 77.3153 158.364 77.2776 158.448 77.2892C158.49 77.2892 158.53 77.308 158.571 77.3109C158.654 77.316 158.737 77.316 158.82 77.3109C158.888 77.3024 158.957 77.2889 159.024 77.2704C159.12 77.2509 159.207 77.2002 159.272 77.1262C159.336 77.0522 159.375 76.9589 159.381 76.8609C159.392 76.7783 159.396 76.6952 159.395 76.612C159.395 76.4441 159.395 76.2777 159.395 76.1113C159.395 73.1533 159.395 70.1959 159.395 67.2389C159.395 66.6716 159.348 66.7223 159.908 66.7208H161.366C161.449 66.7196 161.532 66.7264 161.614 66.7411C161.632 66.748 161.649 66.7587 161.663 66.7724C161.678 66.7861 161.689 66.8025 161.696 66.8207C161.71 66.8602 161.715 66.902 161.712 66.9437C161.712 67.0551 161.712 67.1651 161.712 67.2765V76.774C161.712 76.9824 161.712 77.1908 161.712 77.3992C161.702 77.677 161.646 77.9512 161.547 78.211C161.486 78.3825 161.391 78.5394 161.266 78.6722C161.142 78.8049 160.991 78.9105 160.824 78.9824C160.645 79.0597 160.459 79.118 160.268 79.156C160.241 79.1583 160.214 79.1668 160.191 79.1809C160.167 79.1949 160.147 79.2141 160.132 79.2371L159.05 79.2472Z" fill="white"/>
<path d="M260.999 75.5803C260.638 75.5803 260.275 75.5919 259.918 75.5934C259.599 75.5934 259.279 75.5934 258.961 75.5934C258.919 75.5917 258.878 75.5878 258.837 75.5818C258.81 75.5756 258.786 75.561 258.768 75.5402C258.75 75.5193 258.74 75.4933 258.738 75.466C258.738 75.3691 258.728 75.2736 258.728 75.1766C258.728 72.5023 258.728 69.8275 258.728 67.1523C258.728 67.0698 258.728 66.9858 258.728 66.9034C258.725 66.8827 258.727 66.8617 258.733 66.8417C258.739 66.8218 258.749 66.8033 258.762 66.7877C258.776 66.772 258.793 66.7595 258.812 66.751C258.831 66.7425 258.852 66.7382 258.873 66.7384C258.9 66.7369 258.928 66.7369 258.955 66.7384H260.868C260.91 66.7384 260.951 66.7485 260.993 66.7529L260.999 75.5803Z" fill="white"/>
<path d="M260.999 65.6659C260.376 65.6659 259.754 65.6659 259.132 65.6659C259.035 65.6659 258.938 65.6659 258.842 65.6543C258.815 65.6494 258.791 65.6359 258.772 65.6158C258.754 65.5957 258.742 65.5701 258.74 65.5429C258.735 65.516 258.732 65.489 258.731 65.4619V63.802C258.732 63.7748 258.735 63.7478 258.74 63.721C258.745 63.6943 258.757 63.6695 258.776 63.6496C258.794 63.6296 258.818 63.6152 258.844 63.6081C258.941 63.6081 259.038 63.5951 259.133 63.5951H260.793C260.863 63.5951 260.931 63.5864 261 63.582L260.999 65.6659Z" fill="white"/>
<path d="M131.11 28.2359V8.6562C131.11 8.51873 131.11 8.3798 131.11 8.24088C131.115 8.21397 131.128 8.18921 131.147 8.17003C131.167 8.15084 131.191 8.13818 131.218 8.13379C131.363 8.13379 131.496 8.13379 131.635 8.13379H139.386C143.638 8.13379 147.889 8.13379 152.14 8.13379C152.779 8.13379 153.419 8.14392 154.056 8.19457C155.692 8.32481 157.255 8.72132 158.698 9.53316C159.38 9.90787 160.006 10.376 160.559 10.9239C160.826 11.191 161.068 11.4816 161.283 11.7921C162.041 12.8733 162.623 14.0687 163.005 15.3333C163.251 16.1722 163.411 17.0345 163.479 17.9063C163.522 18.3907 163.539 18.8772 163.528 19.3635C163.511 20.4912 163.339 21.6112 163.016 22.6919C162.447 24.5681 161.284 26.2088 159.702 27.3676C158.931 27.9365 158.095 28.412 157.212 28.7843C157.097 28.8335 156.985 28.8871 156.873 28.9421C156.856 28.9508 156.847 28.9782 156.838 28.9985C156.83 29.0188 156.857 29.0173 156.869 29.0231C157.264 29.1924 157.66 29.3603 158.055 29.531C158.284 29.6309 158.508 29.7409 158.737 29.8422C159.193 30.0501 159.609 30.3339 159.97 30.6815C160.271 30.9696 160.551 31.2791 160.808 31.6077C161.224 32.1317 161.503 32.7508 161.621 33.4094C161.724 33.9409 161.815 34.4744 161.892 35.0099C161.979 35.6003 162.048 36.1932 162.099 36.7884C162.151 37.3817 162.188 37.9794 162.203 38.5756C162.245 40.2688 162.304 41.9619 162.309 43.6565C162.309 44.0469 162.357 44.4358 162.453 44.8142C162.637 45.5934 163.107 46.2749 163.77 46.7229C163.867 46.776 163.955 46.8428 164.032 46.9212C164.11 47.024 164.068 47.1629 164.07 47.2873C164.07 47.6202 164.07 47.953 164.07 48.2873C164.066 48.3214 164.05 48.3531 164.025 48.3767C164 48.4003 163.968 48.4142 163.934 48.4161H163.644H155.475C155.186 48.4161 155.186 48.4161 155.056 48.1715C154.647 47.3967 154.349 46.5687 154.17 45.7114C154.131 45.5074 154.092 45.3033 154.069 45.0964C154.03 44.752 153.992 44.4061 153.975 44.0588C153.904 42.5885 153.867 41.1182 153.937 39.645C153.964 39.0662 153.985 38.4801 154.014 37.8984C154.042 37.3154 154.022 36.7312 153.953 36.1517C153.895 35.6404 153.762 35.1405 153.558 34.6684C153.242 33.933 152.662 33.3424 151.933 33.0128C151.518 32.8219 151.08 32.6856 150.63 32.6076C150.041 32.5049 149.445 32.4541 148.847 32.4557H139.803C139.691 32.4557 139.58 32.4629 139.47 32.4731C139.448 32.4731 139.424 32.5049 139.412 32.5266C139.4 32.552 139.394 32.5797 139.395 32.6076C139.395 32.7524 139.395 32.8855 139.395 33.0244C139.395 37.9678 139.395 42.9112 139.395 47.8546C139.395 48.4957 139.473 48.4132 138.851 48.4132C136.447 48.4132 134.044 48.4132 131.64 48.4132C131.495 48.4132 131.363 48.4132 131.224 48.4132C131.197 48.4082 131.172 48.3947 131.153 48.3747C131.134 48.3547 131.122 48.3291 131.119 48.3018C131.119 48.1773 131.119 48.0529 131.119 47.927V28.2359H131.11ZM145.133 15.0453H139.962C139.837 15.0453 139.712 15.0453 139.587 15.0453C139.546 15.0469 139.505 15.0552 139.467 15.0699C139.444 15.0699 139.413 15.1032 139.412 15.1234C139.4 15.2194 139.394 15.3161 139.393 15.4129C139.393 18.6631 139.393 21.9129 139.393 25.1622C139.393 25.2172 139.393 25.2721 139.393 25.3286C139.393 25.4805 139.431 25.5124 139.597 25.5153H149.183C149.472 25.5153 149.762 25.5153 150.051 25.5066C150.704 25.4878 151.354 25.401 151.989 25.2475C152.545 25.1207 153.076 24.9058 153.564 24.6108C153.98 24.355 154.322 23.9955 154.558 23.5674C154.69 23.324 154.8 23.0687 154.885 22.8048C155.056 22.2755 155.159 21.7264 155.19 21.171C155.262 20.3264 155.239 19.4766 155.122 18.6371C155.057 18.1972 154.941 17.7664 154.776 17.3535C154.505 16.6602 153.982 16.0949 153.312 15.7703C152.939 15.5834 152.547 15.4378 152.142 15.3362C151.55 15.1853 150.943 15.0975 150.332 15.0742C149.818 15.0598 149.305 15.0424 148.791 15.0409C147.575 15.0409 146.352 15.0453 145.131 15.0453H145.133Z" fill="white"/>
<path d="M94.3687 28.2348C94.3687 21.7228 94.3687 15.2107 94.3687 8.69859C94.3687 8.55387 94.3687 8.39324 94.3687 8.24129C94.3726 8.21397 94.3858 8.18884 94.4061 8.17013C94.4264 8.15141 94.4525 8.14026 94.4801 8.13855C94.5214 8.13302 94.5629 8.12964 94.6045 8.12842H122.913C123.058 8.12842 123.219 8.12842 123.371 8.12842C123.397 8.1365 123.42 8.15112 123.439 8.17088C123.458 8.19064 123.471 8.21489 123.478 8.24129C123.478 8.32523 123.478 8.40771 123.478 8.49165V14.6564C123.478 14.7259 123.478 14.8011 123.478 14.8648C123.478 14.9922 123.428 15.037 123.3 15.0399C123.146 15.0399 122.994 15.0399 122.841 15.0399H102.923C102.691 15.0399 102.68 15.0573 102.675 15.3091V15.393C102.675 18.1975 102.675 21.0026 102.675 23.8081C102.676 23.8905 102.683 23.9728 102.697 24.0541C102.697 24.0758 102.727 24.0989 102.749 24.1105C102.774 24.1231 102.801 24.1301 102.829 24.1308C102.973 24.1308 103.106 24.1308 103.245 24.1308H121.376C121.521 24.1308 121.682 24.1308 121.834 24.1409C121.861 24.1438 121.887 24.1559 121.906 24.1754C121.926 24.1949 121.938 24.2206 121.941 24.248C121.941 24.3175 121.941 24.3927 121.941 24.4564V30.7051C121.941 30.7745 121.941 30.844 121.941 30.9135C121.94 30.9483 121.925 30.9813 121.9 31.0053C121.875 31.0294 121.841 31.0427 121.806 31.0423C121.662 31.0423 121.528 31.0423 121.389 31.0423H103.261C103.108 31.0423 102.954 31.0423 102.803 31.0423C102.785 31.0413 102.768 31.0441 102.752 31.0505C102.736 31.0569 102.722 31.0667 102.71 31.0793C102.698 31.0919 102.69 31.1068 102.684 31.1232C102.679 31.1396 102.677 31.1569 102.68 31.174C102.68 31.2859 102.68 31.3973 102.68 31.5082V40.9638C102.68 41.0897 102.68 41.2141 102.69 41.3386C102.694 41.3658 102.708 41.3907 102.728 41.4095C102.748 41.4283 102.774 41.44 102.801 41.4428C102.946 41.4428 103.077 41.4428 103.216 41.4428H124.136C124.482 41.4428 124.478 41.4298 124.476 41.7843V48.0345C124.476 48.1025 124.476 48.1719 124.476 48.2414C124.471 48.2683 124.458 48.2932 124.44 48.3131C124.421 48.3331 124.397 48.3474 124.371 48.3543H124.246H94.9403C94.7869 48.3543 94.6349 48.3543 94.483 48.3442C94.4554 48.3415 94.4296 48.3291 94.4103 48.3092C94.3909 48.2894 94.3793 48.2633 94.3773 48.2356C94.3773 48.1112 94.3773 47.9867 94.3773 47.8608C94.3773 46.0693 94.3773 44.2782 94.3773 42.4876L94.3687 28.2348Z" fill="white"/>
<path d="M188.746 25.4548C188.797 25.5727 188.868 25.6806 188.956 25.7731L193.272 31.3345L203.002 43.8709L206.245 48.0531C206.304 48.1298 206.359 48.2094 206.416 48.2876C206.438 48.318 206.416 48.3845 206.377 48.386C206.307 48.386 206.232 48.3947 206.168 48.3947H196.955C196.9 48.3947 196.843 48.3947 196.788 48.3947C196.731 48.4008 196.674 48.3904 196.622 48.3647C196.571 48.3391 196.528 48.2993 196.499 48.25C196.293 47.9707 196.083 47.6928 195.876 47.415C191.797 41.9159 187.716 36.4206 183.635 30.9293C183.577 30.8511 183.518 30.7759 183.459 30.6992C183.444 30.6846 183.426 30.6751 183.406 30.6719C183.386 30.6688 183.365 30.6723 183.347 30.6818C183.276 30.7469 183.202 30.812 183.137 30.8815L180.365 33.7656C180.038 34.1062 179.71 34.4439 179.382 34.7786C179.346 34.8111 179.318 34.8509 179.298 34.8953C179.279 34.9398 179.27 34.9878 179.271 35.0362C179.271 35.1621 179.271 35.2866 179.271 35.411C179.271 39.5595 179.271 43.7113 179.271 47.8665C179.271 48.4323 179.33 48.3831 178.761 48.3831H171.485C171.359 48.3831 171.235 48.3831 171.11 48.3831C171.076 48.3809 171.044 48.3655 171.02 48.3402C170.997 48.3149 170.984 48.2815 170.984 48.2471C170.984 48.1356 170.984 48.0242 170.984 47.9128V8.59281C170.984 8.48138 170.984 8.36995 170.984 8.25853C170.987 8.22268 171.004 8.18932 171.031 8.16573C171.058 8.14214 171.093 8.13024 171.129 8.13263C171.241 8.13263 171.35 8.13263 171.462 8.13263H178.796C178.922 8.13263 179.046 8.13263 179.171 8.14131C179.198 8.14438 179.224 8.15597 179.244 8.17441C179.264 8.19286 179.278 8.21723 179.284 8.24405C179.284 8.36995 179.294 8.49441 179.294 8.61886C179.294 9.75823 179.294 10.8966 179.294 12.0341C179.294 16.4218 179.294 20.8114 179.294 25.203C179.294 25.3477 179.294 25.4808 179.307 25.6183C179.307 25.6357 179.34 25.6545 179.36 25.6675C179.381 25.6805 179.386 25.6675 179.394 25.6588C179.489 25.559 179.586 25.4591 179.683 25.3564L183.341 21.2494C185.946 18.3262 188.551 15.4025 191.156 12.4784L194.787 8.40324C195.047 8.11381 194.995 8.13841 195.392 8.13841H204.393C204.49 8.13911 204.586 8.1449 204.682 8.15578C204.694 8.15578 204.716 8.21077 204.707 8.22235C204.663 8.29048 204.615 8.3553 204.562 8.41626C203.983 9.03853 203.408 9.66031 202.836 10.2816L191.732 22.2566L188.982 25.2218C188.888 25.2912 188.817 25.3752 188.746 25.4548Z" fill="white"/>
<path d="M219.479 28.2528V47.8267C219.479 47.9714 219.479 48.1045 219.479 48.242C219.479 48.3332 219.417 48.3867 219.315 48.3867H211.646C211.132 48.3867 211.171 48.4214 211.171 47.9178C211.171 34.8126 211.171 21.7074 211.171 8.6022C211.171 8.09571 211.113 8.12031 211.631 8.12031H219.048C219.527 8.12031 219.482 8.10584 219.482 8.54721C219.481 15.1181 219.48 21.6867 219.479 28.2528Z" fill="white"/>
<path d="M74.0309 28.2548V8.83575C74.0309 8.7113 74.0309 8.58685 74.0309 8.46095C74.0309 8.17152 74.0541 8.14403 74.329 8.14258C75.3015 8.14258 76.2739 8.14258 77.2464 8.14258C77.3155 8.14385 77.3843 8.1516 77.4519 8.16573C77.4773 8.17628 77.498 8.19587 77.5098 8.22072C77.5227 8.24525 77.5291 8.27263 77.5286 8.30032C77.5286 8.42477 77.5286 8.54922 77.5286 8.67512V47.8822C77.5286 48.0081 77.5286 48.1326 77.5286 48.257C77.5243 48.2923 77.5072 48.3248 77.4805 48.3483C77.4539 48.3718 77.4195 48.3846 77.3839 48.3844C77.3159 48.3844 77.2464 48.3844 77.177 48.3844C76.2595 48.3844 75.342 48.3844 74.4274 48.3844C74.0251 48.3844 74.0266 48.3511 74.028 47.9922V28.2548H74.0309Z" fill="white"/>
<path d="M174.216 71.1549V67.2404C174.216 67.1145 174.216 66.9901 174.224 66.8656C174.228 66.8315 174.244 66.7998 174.269 66.7762C174.294 66.7526 174.326 66.7387 174.36 66.7368C174.415 66.7368 174.472 66.7368 174.527 66.7368H176.194C176.249 66.7368 176.304 66.7368 176.36 66.7469C176.395 66.7519 176.427 66.7693 176.45 66.7959C176.473 66.8225 176.485 66.8565 176.485 66.8917C176.485 67.0364 176.485 67.1695 176.485 67.307C176.485 67.4184 176.485 67.5298 176.485 67.6398C176.485 67.6601 176.514 67.6803 176.532 67.6963C176.538 67.6993 176.545 67.7009 176.551 67.7009C176.558 67.7009 176.564 67.6993 176.57 67.6963C176.642 67.6326 176.715 67.5704 176.784 67.5023C176.982 67.307 177.199 67.1325 177.433 66.9814C177.786 66.7569 178.191 66.6273 178.609 66.6051C178.789 66.5907 178.969 66.6051 179.15 66.5979C179.456 66.6027 179.76 66.658 180.048 66.7614C180.474 66.9002 180.846 67.1683 181.113 67.5284L181.311 67.7947C181.314 67.8009 181.319 67.8062 181.325 67.8102C181.33 67.8142 181.337 67.8168 181.344 67.8176C181.351 67.8185 181.358 67.8176 181.365 67.8151C181.371 67.8126 181.377 67.8086 181.382 67.8034C181.492 67.6977 181.599 67.5892 181.706 67.4806C182.05 67.1344 182.475 66.8789 182.942 66.7368C183.219 66.6447 183.509 66.5959 183.801 66.5921C184.149 66.5749 184.497 66.6051 184.836 66.6818C185.092 66.7459 185.339 66.8432 185.57 66.9713C185.866 67.1412 186.121 67.3742 186.318 67.6538C186.514 67.9334 186.647 68.2527 186.706 68.5891C186.762 68.8614 186.79 69.1388 186.788 69.4169C186.788 71.3464 186.788 73.2759 186.788 75.2054C186.788 75.3024 186.788 75.3993 186.777 75.4948C186.772 75.522 186.758 75.5467 186.738 75.5653C186.717 75.5838 186.691 75.5952 186.664 75.5976C186.637 75.6019 186.609 75.6048 186.581 75.6063H184.664C184.622 75.6059 184.581 75.598 184.542 75.5831C184.517 75.5716 184.498 75.5509 184.487 75.5252C184.476 75.4847 184.471 75.4428 184.471 75.4008C184.471 75.1924 184.471 74.9855 184.471 74.7771C184.471 73.1669 184.471 71.5562 184.471 69.9451C184.471 69.8192 184.471 69.6947 184.471 69.5703C184.464 69.3533 184.389 69.144 184.257 68.9713C184.126 68.7986 183.944 68.6712 183.736 68.6065C183.513 68.5277 183.274 68.5019 183.039 68.5313C182.831 68.5502 182.628 68.6081 182.441 68.702C182.257 68.8023 182.097 68.9413 181.972 69.1095C181.847 69.2776 181.76 69.4709 181.718 69.6759C181.662 69.9198 181.636 70.1696 181.641 70.4198C181.641 71.9634 181.641 73.5046 181.641 75.0433C181.641 75.1678 181.641 75.2937 181.641 75.4181C181.641 75.5426 181.595 75.6063 181.434 75.6077H179.553C179.511 75.6095 179.469 75.6036 179.43 75.5904C179.393 75.5749 179.362 75.5474 179.343 75.5122C179.328 75.4734 179.322 75.4319 179.325 75.3906C179.325 75.2662 179.325 75.1403 179.325 75.0158V69.9191C179.325 69.7671 179.325 69.6137 179.311 69.4618C179.299 69.2648 179.227 69.0763 179.105 68.9212C178.983 68.7661 178.816 68.6518 178.628 68.5935C178.244 68.4562 177.823 68.466 177.446 68.621C177.128 68.7377 176.869 68.9734 176.722 69.278C176.611 69.4869 176.548 69.7176 176.535 69.9538C176.535 70.1202 176.524 70.2866 176.524 70.453V75.0839C176.524 75.2083 176.524 75.3328 176.514 75.4572C176.511 75.4916 176.495 75.5238 176.471 75.5479C176.446 75.5721 176.414 75.5866 176.379 75.5889H176.295H174.414C174.372 75.5914 174.331 75.585 174.292 75.5701C174.275 75.5615 174.259 75.5494 174.246 75.5345C174.233 75.5195 174.223 75.5021 174.217 75.4833C174.206 75.3603 174.201 75.2344 174.201 75.1099L174.216 71.1549Z" fill="white"/>
<path d="M114.708 71.1809V67.2245C114.708 67.1 114.708 66.9755 114.72 66.8496C114.724 66.8226 114.737 66.7976 114.756 66.7783C114.776 66.7591 114.801 66.7465 114.828 66.7426C114.855 66.7378 114.883 66.7344 114.911 66.7324H116.827C116.951 66.7324 117.01 66.7903 117.013 66.9046C117.013 67.0985 117.013 67.2925 117.013 67.4835C117.014 67.5381 117.021 67.5924 117.034 67.6456C117.042 67.6544 117.052 67.6612 117.063 67.6655C117.075 67.6698 117.087 67.6714 117.099 67.6702C117.203 67.579 117.303 67.4835 117.403 67.3807C117.609 67.1745 117.844 66.9994 118.102 66.8612C118.446 66.678 118.83 66.5788 119.22 66.5718C119.567 66.5543 119.914 66.5795 120.255 66.647C120.846 66.7661 121.366 67.1141 121.702 67.6152L121.798 67.7512C121.806 67.7623 121.817 67.7713 121.83 67.7775C121.842 67.7837 121.856 67.7869 121.87 67.7869C121.884 67.7869 121.898 67.7837 121.91 67.7775C121.923 67.7713 121.934 67.7623 121.942 67.7512C122.036 67.6485 122.125 67.5414 122.232 67.4459C122.569 67.1137 122.98 66.8658 123.431 66.7223C123.709 66.6336 123.998 66.5849 124.289 66.5776C124.636 66.5638 124.984 66.5915 125.324 66.6601C126.323 66.8959 126.957 67.5009 127.205 68.4994C127.265 68.7422 127.295 68.9916 127.292 69.2417C127.292 69.6585 127.292 70.0738 127.292 70.4906V75.1967C127.292 75.5946 127.302 75.5932 126.912 75.5932H125.328C125.246 75.5949 125.163 75.5886 125.081 75.5744C125.062 75.5684 125.044 75.5586 125.029 75.5454C125.014 75.5321 125.001 75.5159 124.993 75.4977C124.979 75.4588 124.973 75.4173 124.977 75.3761C124.977 75.2314 124.977 75.0983 124.977 74.9594V69.9204C124.977 69.7757 124.977 69.6426 124.97 69.5051C124.96 69.3018 124.889 69.1061 124.766 68.9444C124.642 68.7828 124.472 68.6628 124.278 68.6007C124.082 68.5275 123.873 68.4936 123.664 68.5011C123.455 68.5085 123.25 68.5571 123.059 68.6441C122.834 68.7382 122.636 68.89 122.487 69.0843C122.339 69.2786 122.243 69.5085 122.211 69.7511C122.166 70.0105 122.144 70.2736 122.146 70.5369C122.146 72.0506 122.146 73.5638 122.146 75.0766C122.146 75.641 122.198 75.5918 121.635 75.5932C121.177 75.5932 120.718 75.5932 120.259 75.5932C120.164 75.5932 120.067 75.5932 119.97 75.5802C119.943 75.5751 119.918 75.5614 119.9 75.541C119.882 75.5205 119.871 75.4946 119.868 75.4673C119.868 75.4253 119.86 75.3848 119.86 75.3428C119.86 75.2314 119.86 75.1214 119.86 75.01C119.86 73.2879 119.86 71.5668 119.86 69.8466C119.868 69.6512 119.845 69.4557 119.79 69.2678C119.744 69.1139 119.662 68.9733 119.55 68.8576C119.439 68.7418 119.301 68.6543 119.149 68.6021C118.753 68.4576 118.317 68.469 117.929 68.634C117.741 68.7082 117.572 68.8242 117.436 68.9731C117.299 69.1219 117.197 69.2999 117.139 69.4935C117.067 69.69 117.03 69.8978 117.031 70.1071C117.031 70.2591 117.031 70.4125 117.031 70.5644V75.1142C117.031 75.2387 117.031 75.3631 117.019 75.4876C117.014 75.5147 117 75.5394 116.979 75.5579C116.958 75.5764 116.932 75.5877 116.905 75.5903C116.85 75.5903 116.795 75.6004 116.74 75.6004C116.161 75.6004 115.573 75.6004 114.99 75.6004C114.921 75.5996 114.852 75.5913 114.785 75.5758C114.772 75.5712 114.76 75.5635 114.75 75.5535C114.741 75.5434 114.734 75.5312 114.73 75.5179C114.718 75.4359 114.712 75.3533 114.711 75.2705C114.711 74.7293 114.711 74.1866 114.711 73.6454L114.708 71.1809Z" fill="white"/>
<path d="M67.0353 69.606C67.0353 71.439 67.0353 73.2721 67.0353 75.1051C67.0353 75.2498 67.0252 75.3815 67.015 75.519C67.015 75.5407 66.9817 75.5638 66.9586 75.5769C66.9331 75.5881 66.9054 75.5935 66.8776 75.5928H64.9196C64.8913 75.5947 64.863 75.5897 64.8371 75.5783C64.8024 75.5595 64.7633 75.5378 64.7618 75.4886C64.7532 75.2947 64.7445 75.1022 64.7315 74.9097C64.7315 74.8909 64.6967 74.8721 64.6736 74.8591C64.6504 74.8461 64.6446 74.8591 64.6359 74.8707C64.5929 74.905 64.5532 74.9433 64.5173 74.985C64.3958 75.1369 64.2564 75.2734 64.102 75.3916C63.7564 75.6745 63.3409 75.8589 62.8994 75.9256C62.7635 75.9521 62.6263 75.9714 62.4884 75.9835C61.8759 76.0207 61.2648 75.8912 60.72 75.6087C60.3385 75.4066 60.0003 75.1318 59.7244 74.7998C59.2109 74.1932 58.8559 73.4687 58.6911 72.6913C58.5758 72.1909 58.5243 71.6779 58.5377 71.1646C58.5754 70.2543 58.7389 69.3745 59.1933 68.5684C59.4766 68.041 59.8687 67.5798 60.3438 67.2154C60.8751 66.8031 61.5279 66.5782 62.2004 66.5757C62.4639 66.5661 62.7276 66.587 62.9862 66.6379C63.5892 66.7635 64.1301 67.0938 64.5173 67.5728C64.5505 67.6172 64.5873 67.6588 64.6273 67.6972C64.6417 67.7088 64.6765 67.6972 64.7011 67.6972C64.7257 67.6972 64.7315 67.6828 64.7315 67.6726C64.7387 67.5757 64.7459 67.4802 64.7459 67.3832C64.7459 66.3008 64.7459 65.2183 64.7459 64.1359C64.7459 64.0259 64.7459 63.9144 64.7459 63.803C64.7459 63.6511 64.798 63.599 64.9384 63.5932H65.0209H66.7705C66.8259 63.5912 66.8814 63.5965 66.9354 63.6091C66.9561 63.613 66.9749 63.6234 66.9893 63.6387C67.0036 63.6541 67.0126 63.6736 67.015 63.6945C67.015 63.8045 67.0309 63.9159 67.0309 64.0259C67.0309 65.2473 67.0309 66.4682 67.0309 67.6886L67.0353 69.606ZM64.7532 71.3107C64.7372 71.1458 64.7097 70.9533 64.6996 70.7608C64.672 70.4144 64.5885 70.0747 64.4522 69.7551C64.3505 69.4966 64.2035 69.2584 64.018 69.0518C63.8724 68.8878 63.6951 68.7551 63.4968 68.6616C63.2984 68.5681 63.0832 68.5158 62.8641 68.5078C62.645 68.4998 62.4265 68.5363 62.2219 68.6152C62.0173 68.694 61.8308 68.8135 61.6737 68.9664C61.367 69.2718 61.1443 69.6511 61.0268 70.0676C60.8183 70.7773 60.7939 71.5283 60.9559 72.2499C61.0438 72.6587 61.2207 73.0431 61.474 73.3758C61.6136 73.5625 61.7911 73.7175 61.9948 73.8309C62.1985 73.9442 62.4238 74.0133 62.6561 74.0335C62.8883 74.0537 63.1222 74.0246 63.3425 73.9482C63.5627 73.8718 63.7643 73.7497 63.9341 73.59C64.1528 73.3756 64.3282 73.1211 64.4507 72.8403C64.6692 72.3642 64.7112 71.8534 64.7532 71.3107Z" fill="white"/>
<path d="M27.397 71.7855V73.8679C27.397 73.9504 27.397 74.0343 27.397 74.1168C27.3838 74.3046 27.4085 74.4931 27.4696 74.6711C27.5308 74.8491 27.6271 75.013 27.753 75.1529C27.801 75.2027 27.8428 75.2581 27.8774 75.3179C27.8995 75.368 27.9094 75.4225 27.9064 75.4771C27.908 75.4979 27.9023 75.5186 27.8901 75.5356C27.8779 75.5526 27.8601 75.5646 27.8398 75.5697C27.7861 75.5815 27.7313 75.5883 27.6763 75.59C26.9817 75.59 26.2885 75.59 25.5939 75.59C25.5522 75.5895 25.5106 75.5861 25.4694 75.5798C25.4421 75.5758 25.4162 75.5654 25.3936 75.5496C25.3709 75.5338 25.3523 75.5129 25.3392 75.4887C25.2572 75.3595 25.2016 75.2154 25.1756 75.0647C25.1665 74.9961 25.152 74.9284 25.1322 74.8621C25.1322 74.8462 25.0859 74.8346 25.0628 74.836C25.0354 74.8403 25.0097 74.8523 24.989 74.8708C24.9021 74.9402 24.8168 75.0111 24.7328 75.0835C24.1923 75.5702 23.5134 75.8763 22.7908 75.959C22.0956 76.0569 21.3887 75.8951 20.8053 75.5046C20.374 75.217 20.0547 74.7898 19.9009 74.2948C19.682 73.6307 19.6855 72.9133 19.911 72.2514C20.0593 71.7988 20.3515 71.407 20.7431 71.1357C21.1292 70.8618 21.5701 70.6747 22.0354 70.5872C22.552 70.4845 23.0686 70.3818 23.5925 70.3181C23.8809 70.2765 24.1665 70.2175 24.4477 70.1415C24.6476 70.0789 24.8273 69.9646 24.9687 69.8101C25.0086 69.7694 25.0384 69.7198 25.0555 69.6654C25.1901 69.2313 25.1076 68.7971 24.6764 68.6018C24.5624 68.55 24.443 68.5112 24.3204 68.486C23.9227 68.4218 23.5171 68.4258 23.1207 68.4976C23.0526 68.5112 22.9854 68.5291 22.9196 68.5511C22.7568 68.5918 22.6084 68.6767 22.4909 68.7965C22.3734 68.9163 22.2914 69.0663 22.2539 69.2298C22.2235 69.3369 22.196 69.444 22.1656 69.5511C22.1564 69.5772 22.1394 69.5998 22.1168 69.6158C22.0943 69.6319 22.0674 69.6406 22.0397 69.6408C22.0122 69.6408 21.9847 69.6408 21.9572 69.6408H20.1642C20.1096 69.6391 20.0554 69.6293 20.0036 69.6119C19.9833 69.6046 19.9689 69.5728 19.9559 69.5497C19.9481 69.5382 19.9445 69.5244 19.9457 69.5106C19.9855 69.082 20.0945 68.6627 20.2684 68.2689C20.5563 67.6445 21.075 67.1559 21.7156 66.9057C22.2047 66.7055 22.7256 66.5938 23.2539 66.5758C23.5997 66.5642 23.9485 66.5599 24.2943 66.5758C24.8218 66.5978 25.3422 66.7048 25.8355 66.8927C26.1871 67.0265 26.5034 67.2388 26.7603 67.5135C27.0794 67.8491 27.2823 68.2782 27.3391 68.7378C27.3823 69.0543 27.4031 69.3735 27.4013 69.6929C27.3912 70.4006 27.397 71.0952 27.397 71.7855ZM25.1163 72.0054H25.1033C25.1033 71.8607 25.1033 71.7015 25.1033 71.5496C25.1022 71.5361 25.0981 71.523 25.0912 71.5113C25.0843 71.4996 25.0749 71.4896 25.0636 71.4821C25.0523 71.4746 25.0395 71.4697 25.0261 71.4679C25.0126 71.466 24.999 71.4672 24.9861 71.4714C24.8529 71.5091 24.7212 71.5539 24.5867 71.5829C24.1795 71.6678 23.7724 71.7498 23.3653 71.8289C23.1484 71.8743 22.9359 71.9382 22.73 72.0199C22.5866 72.0732 22.4559 72.1561 22.3465 72.263C22.1906 72.4046 22.0943 72.6001 22.0773 72.81C22.0701 72.9484 22.0701 73.087 22.0773 73.2254C22.083 73.3294 22.1092 73.4313 22.1544 73.5252C22.1996 73.6191 22.2629 73.7031 22.3407 73.7724C22.534 73.956 22.7865 74.0648 23.0527 74.0792C23.2451 74.0993 23.4391 74.0993 23.6316 74.0792C23.8664 74.0571 24.0929 73.9813 24.2937 73.8576C24.4945 73.7339 24.664 73.5656 24.7893 73.3657C24.9491 73.1056 25.048 72.8128 25.0787 72.509C25.1091 72.3412 25.1076 72.1733 25.1163 72.0083V72.0054Z" fill="white"/>
<path d="M146.958 71.6963C146.958 72.5154 146.958 73.3345 146.958 74.1564C146.946 74.3509 146.979 74.5456 147.055 74.7252C147.125 74.8606 147.203 74.9916 147.289 75.1173C147.327 75.1752 147.383 75.2201 147.424 75.2751C147.448 75.3091 147.463 75.3485 147.469 75.3899C147.474 75.4313 147.469 75.4734 147.454 75.5124C147.45 75.5249 147.444 75.5366 147.436 75.5465C147.427 75.5565 147.417 75.5646 147.405 75.5703C147.352 75.5856 147.298 75.5939 147.243 75.5949H145.159H145.076C145.042 75.5923 145.008 75.5819 144.979 75.5643C144.949 75.5468 144.923 75.5225 144.904 75.4936C144.84 75.4024 144.795 75.2989 144.773 75.1897C144.751 75.0956 144.735 75.0001 144.715 74.9003C144.715 74.8641 144.715 74.8134 144.657 74.8134C144.63 74.8134 144.603 74.8232 144.583 74.8409C144.415 75.0068 144.234 75.1592 144.042 75.2968C143.692 75.5526 143.3 75.7442 142.884 75.8626C142.269 76.0481 141.61 76.0349 141.003 75.825C140.584 75.692 140.21 75.446 139.922 75.114C139.634 74.7821 139.443 74.3771 139.37 73.9437C139.259 73.4111 139.287 72.859 139.451 72.3403C139.619 71.7913 139.988 71.3261 140.485 71.0379C140.83 70.8309 141.209 70.6841 141.603 70.6037C141.916 70.5372 142.23 70.4865 142.544 70.4301C142.994 70.349 143.45 70.3071 143.896 70.1899C144.069 70.1421 144.233 70.0658 144.382 69.9641C144.851 69.6573 144.79 68.8788 144.246 68.6241C144.132 68.5737 144.012 68.5368 143.89 68.5141C143.753 68.4886 143.616 68.4702 143.477 68.4591C143.159 68.4617 142.841 68.4946 142.528 68.5575C142.358 68.5973 142.202 68.6827 142.077 68.8046C141.951 68.9265 141.862 69.0802 141.817 69.2492C141.784 69.3549 141.761 69.4634 141.728 69.569C141.719 69.5957 141.703 69.6191 141.681 69.6359C141.658 69.6528 141.631 69.6623 141.603 69.6631C141.562 69.6653 141.52 69.6653 141.479 69.6631H139.771C139.716 69.6627 139.662 69.6549 139.609 69.6399C139.597 69.635 139.585 69.6274 139.576 69.6177C139.566 69.6079 139.559 69.5963 139.554 69.5835C139.539 69.5453 139.533 69.5043 139.535 69.4634C139.609 68.6458 139.893 67.928 140.534 67.381C140.878 67.0965 141.28 66.8914 141.712 66.7804C142.125 66.6578 142.553 66.5944 142.984 66.5923C143.262 66.5923 143.54 66.5923 143.817 66.5923C144.303 66.6081 144.784 66.6964 145.244 66.8542C145.495 66.9366 145.734 67.053 145.953 67.2001C146.431 67.5228 146.762 68.0211 146.874 68.5864C146.933 68.8577 146.962 69.135 146.959 69.4127C146.959 70.1754 146.959 70.9395 146.959 71.7021L146.958 71.6963ZM144.699 71.9307C144.699 71.8063 144.699 71.6949 144.699 71.5849C144.699 71.4749 144.657 71.4402 144.554 71.4662C144.274 71.5569 143.989 71.6299 143.7 71.6847C143.441 71.731 143.184 71.7817 142.926 71.8294C142.638 71.8813 142.361 71.979 142.104 72.1189C141.995 72.1803 141.899 72.2632 141.823 72.3628C141.747 72.4623 141.692 72.5762 141.661 72.6977C141.636 72.8195 141.623 72.9437 141.624 73.0682C141.631 73.3254 141.732 73.5709 141.909 73.7579C142.086 73.9448 142.325 74.0599 142.582 74.0812C142.803 74.094 143.025 74.0916 143.246 74.0739C143.566 74.0395 143.866 73.9 144.098 73.6774C144.371 73.4176 144.556 73.0784 144.625 72.7079C144.686 72.4535 144.711 72.192 144.699 71.9307Z" fill="white"/>
<path d="M226.826 71.6223C226.826 72.4414 226.826 73.2605 226.826 74.0825C226.825 74.2207 226.837 74.3587 226.861 74.4949C226.904 74.7137 227 74.9187 227.14 75.0925C227.192 75.1577 227.253 75.217 227.299 75.285C227.318 75.3143 227.33 75.3472 227.336 75.3816C227.341 75.4159 227.34 75.451 227.331 75.4847C227.324 75.5238 227.308 75.5672 227.259 75.5759C227.205 75.5872 227.15 75.5935 227.095 75.5947H225.055C225.013 75.5969 224.972 75.5969 224.93 75.5947C224.903 75.5925 224.876 75.5838 224.852 75.5695C224.828 75.5552 224.808 75.5356 224.793 75.5122C224.721 75.4098 224.672 75.2934 224.648 75.1707C224.626 75.0622 224.596 74.9565 224.57 74.848C224.56 74.8075 224.511 74.8017 224.47 74.8393C224.388 74.9131 224.308 74.9913 224.224 75.0622C223.82 75.4257 223.341 75.6955 222.82 75.8523C222.354 75.9914 221.863 76.0246 221.382 75.9493C220.982 75.8955 220.6 75.7505 220.265 75.5252C219.976 75.3287 219.734 75.0714 219.555 74.7715C219.376 74.4715 219.264 74.1361 219.229 73.7887C219.217 73.6932 219.207 73.5962 219.197 73.4993C219.185 73.4309 219.18 73.3616 219.181 73.2923C219.195 72.9183 219.262 72.5481 219.379 72.1925C219.538 71.7747 219.816 71.4128 220.179 71.152C220.552 70.8837 220.978 70.6973 221.428 70.605C221.956 70.4907 222.489 70.3923 223.02 70.3257C223.308 70.2842 223.594 70.2267 223.875 70.1535C224.092 70.0939 224.283 69.9666 224.422 69.7903C224.476 69.7272 224.515 69.6524 224.535 69.5718C224.59 69.3834 224.578 69.1819 224.5 69.0016C224.432 68.8323 224.301 68.6953 224.136 68.6181C224.009 68.5613 223.877 68.5195 223.741 68.4936C223.343 68.4248 222.936 68.4307 222.541 68.511C222.353 68.5298 222.174 68.6037 222.028 68.7234C221.882 68.8431 221.774 69.0033 221.718 69.1839C221.69 69.2635 221.668 69.3431 221.647 69.4227C221.639 69.4633 221.628 69.5034 221.615 69.5428C221.607 69.5695 221.592 69.5934 221.571 69.6117C221.55 69.6299 221.524 69.6417 221.496 69.6456C221.441 69.6523 221.385 69.6562 221.33 69.6571H219.674C219.619 69.6562 219.563 69.6523 219.508 69.6456C219.482 69.6366 219.46 69.6208 219.443 69.5998C219.426 69.5788 219.416 69.5536 219.412 69.5269C219.409 69.4855 219.409 69.4439 219.412 69.4024C219.456 69.0013 219.566 68.6101 219.738 68.2447C219.982 67.7414 220.379 67.3278 220.871 67.0624C221.228 66.8744 221.611 66.743 222.009 66.6732C222.639 66.5667 223.281 66.5424 223.917 66.6008C224.319 66.626 224.716 66.7048 225.097 66.8352C225.36 66.9247 225.611 67.0482 225.842 67.2028C226.282 67.503 226.599 67.953 226.732 68.469C226.802 68.7234 226.835 68.9866 226.83 69.2505C226.83 69.8482 226.83 70.4444 226.83 71.0406V71.6194L226.826 71.6223ZM224.571 72.0246C224.571 71.8683 224.571 71.7569 224.571 71.6469C224.571 71.605 224.571 71.5645 224.561 71.5225C224.556 71.5029 224.544 71.4861 224.526 71.4756C224.509 71.4651 224.488 71.4616 224.469 71.466C224.138 71.5674 223.803 71.65 223.463 71.7135C223.244 71.754 223.029 71.7902 222.81 71.8351C222.551 71.882 222.3 71.9632 222.062 72.0767C221.93 72.1379 221.813 72.2287 221.721 72.3421C221.629 72.4555 221.565 72.5885 221.532 72.7308C221.401 73.2605 221.603 73.7959 222.172 74.0087C222.288 74.0553 222.411 74.0817 222.535 74.0868C222.68 74.0868 222.813 74.0868 222.951 74.0868C223.279 74.081 223.597 73.9729 223.86 73.7775C224.124 73.5821 224.32 73.3093 224.421 72.9971C224.531 72.685 224.582 72.3553 224.571 72.0246Z" fill="white"/>
<path d="M83.4761 66.5762C83.9372 66.5627 84.3977 66.6183 84.8422 66.7412C85.4181 66.8833 85.952 67.1601 86.4001 67.5488C86.8481 67.9375 87.1975 68.427 87.4196 68.977C87.616 69.4377 87.7409 69.9257 87.79 70.4241C87.8305 70.7544 87.8508 71.0869 87.8508 71.4197C87.8501 71.9896 87.7653 72.5562 87.599 73.1013C87.3839 73.8397 86.9577 74.499 86.3728 74.9983C85.7879 75.4976 85.0698 75.8151 84.3068 75.9116C84.0052 75.9594 83.7004 75.984 83.3951 75.9854C82.9503 75.9801 82.5078 75.9218 82.0768 75.8118C81.3296 75.6264 80.6574 75.2162 80.1506 74.6367C79.7465 74.1745 79.4499 73.6283 79.2824 73.0376C79.1874 72.704 79.122 72.3626 79.087 72.0174C79.0492 71.7146 79.0337 71.4094 79.0407 71.1043C79.0812 70.3532 79.1854 69.6123 79.5038 68.9206C79.7586 68.3317 80.1571 67.8163 80.6627 67.4214C81.1684 67.0265 81.765 66.7647 82.398 66.6601C82.7534 66.5943 83.1148 66.5662 83.4761 66.5762ZM85.5253 71.2996C85.5377 70.98 85.51 70.6601 85.4428 70.3474C85.3573 69.8812 85.1535 69.4446 84.8509 69.0797C84.6277 68.8071 84.3237 68.6125 83.9826 68.524C83.7001 68.4452 83.4038 68.4289 83.1144 68.4763C82.7566 68.5377 82.4258 68.7057 82.165 68.9582C81.8559 69.2613 81.6323 69.6407 81.5167 70.058C81.3061 70.7668 81.2817 71.5179 81.4458 72.2388C81.5275 72.6346 81.6933 73.0082 81.9321 73.3343C82.4154 73.9841 83.0695 74.2026 83.8437 74.0579C84.2756 73.9772 84.66 73.7337 84.9175 73.3777C85.1131 73.1247 85.2634 72.8398 85.3618 72.5355C85.4903 72.1368 85.5458 71.7181 85.5253 71.2996Z" fill="white"/>
<path d="M1.30243 73.0131H2.26043C2.2952 73.0093 2.33019 73.0181 2.35892 73.0381C2.38765 73.058 2.40819 73.0877 2.41672 73.1217C2.44422 73.2013 2.46592 73.2823 2.50065 73.3575C2.54333 73.4567 2.59165 73.5533 2.64537 73.647C2.72351 73.7791 2.8295 73.8925 2.95596 73.9795C3.08241 74.0665 3.2263 74.1249 3.37761 74.1506C3.92202 74.2699 4.48583 74.2699 5.03024 74.1506C5.23443 74.1063 5.42807 74.0227 5.60041 73.9046C5.69506 73.8449 5.77335 73.7626 5.82818 73.665C5.88301 73.5675 5.91266 73.4578 5.91443 73.346C5.92217 73.235 5.89927 73.1241 5.84822 73.0254C5.79718 72.9266 5.71996 72.8438 5.62501 72.7859C5.47106 72.6916 5.30506 72.6186 5.13154 72.5689C4.61491 72.4082 4.09973 72.2447 3.58311 72.0826C3.21264 71.9668 2.83928 71.8569 2.47026 71.7382C2.25898 71.6716 2.0506 71.5935 1.84076 71.5211C1.57652 71.4281 1.33136 71.2878 1.1172 71.1073C1.00044 71.0131 0.900187 70.9001 0.820536 70.773C0.636096 70.4784 0.518527 70.1469 0.476119 69.8019C0.42723 69.3739 0.472168 68.9403 0.607808 68.5314C0.78009 68.0127 1.11827 67.5652 1.57015 67.2579C1.99295 66.9635 2.47417 66.7636 2.9811 66.6718C3.5834 66.5615 4.19834 66.5376 4.80738 66.6009C5.26526 66.6346 5.71476 66.7416 6.13874 66.9178C6.64596 67.1156 7.09112 67.4453 7.42813 67.8729C7.67196 68.1948 7.83789 68.5687 7.91292 68.9655C7.94476 69.1276 7.95923 69.294 7.97804 69.459C7.97752 69.4867 7.96696 69.5132 7.94833 69.5337C7.9297 69.5542 7.90426 69.5673 7.87674 69.5704C7.83547 69.576 7.79392 69.5794 7.75229 69.5805H6.00271C5.96219 69.5805 5.92022 69.5805 5.87825 69.5805C5.8506 69.5801 5.82392 69.5703 5.8026 69.5527C5.78129 69.535 5.76663 69.5107 5.76104 69.4836C5.73209 69.3635 5.71039 69.239 5.67421 69.1203C5.63811 68.9998 5.57847 68.8876 5.49873 68.7902C5.419 68.6928 5.32076 68.6122 5.20968 68.5531C4.99254 68.4276 4.74941 68.3538 4.49914 68.3374C4.27773 68.3244 4.05487 68.3288 3.83346 68.3302C3.65253 68.3394 3.47444 68.379 3.3067 68.4474C3.16161 68.498 3.03236 68.5859 2.9319 68.7021C2.81861 68.8268 2.75885 68.9911 2.76548 69.1594C2.76533 69.2503 2.78973 69.3396 2.83608 69.4178C2.88244 69.496 2.94904 69.5602 3.02886 69.6037C3.1979 69.6996 3.3776 69.7754 3.56429 69.8294L6.20241 70.5906C6.37607 70.6398 6.54827 70.6919 6.71759 70.7542C7.06004 70.8758 7.37032 71.0737 7.62494 71.333C7.91749 71.6334 8.10963 72.0172 8.17485 72.4314C8.20847 72.5945 8.22927 72.76 8.23707 72.9263C8.24773 73.5985 8.02299 74.2532 7.60179 74.7772C7.31794 75.1413 6.94164 75.4226 6.5121 75.5919C6.08689 75.7618 5.64123 75.8752 5.18653 75.9291C4.77372 75.9852 4.35649 76.0017 3.94055 75.9783C3.31577 75.9614 2.69653 75.8562 2.10125 75.6657C1.811 75.5701 1.53499 75.4358 1.28072 75.2663C0.825484 74.9641 0.485031 74.5176 0.31404 73.9986C0.214933 73.7388 0.162986 73.4634 0.160645 73.1853C0.160645 73.0768 0.182351 73.0131 0.338641 73.0131H1.30243Z" fill="white"/>
<path d="M245.345 69.5786H244.385C244.35 69.5823 244.316 69.572 244.289 69.55C244.261 69.528 244.244 69.4962 244.24 69.4614C244.212 69.3399 244.19 69.2169 244.151 69.0982C244.075 68.872 243.917 68.6822 243.709 68.5657C243.48 68.4322 243.223 68.3544 242.958 68.3385C242.724 68.3211 242.487 68.3298 242.251 68.3385C242.056 68.3501 241.866 68.4029 241.694 68.4933C241.582 68.5471 241.483 68.624 241.404 68.719C241.345 68.7876 241.302 68.8681 241.277 68.955C241.252 69.0419 241.246 69.1332 241.259 69.2227C241.267 69.2991 241.293 69.3726 241.334 69.4374C241.375 69.5022 241.431 69.5565 241.497 69.596C241.664 69.6947 241.844 69.772 242.031 69.8261C242.909 70.0822 243.789 70.334 244.667 70.5887C244.841 70.6394 245.013 70.6944 245.184 70.7508C245.368 70.8145 245.543 70.9 245.706 71.0055C245.974 71.1685 246.201 71.391 246.37 71.6557C246.538 71.9204 246.643 72.2203 246.677 72.5322C246.708 72.696 246.724 72.8621 246.725 73.0286C246.721 73.2924 246.678 73.5541 246.599 73.8057C246.31 74.6508 245.8 75.2861 244.95 75.619C244.548 75.7727 244.129 75.8776 243.702 75.9315C243.303 75.9855 242.9 76.0034 242.498 75.9851C241.943 75.9699 241.391 75.8917 240.853 75.7521C240.557 75.6737 240.273 75.56 240.005 75.4135C239.61 75.2031 239.278 74.8927 239.041 74.5135C238.805 74.1343 238.672 73.6996 238.656 73.2529C238.653 73.212 238.653 73.1709 238.656 73.1299C238.661 73.1025 238.674 73.0773 238.694 73.058C238.714 73.0388 238.74 73.0264 238.767 73.0228C238.795 73.0228 238.822 73.0228 238.85 73.0228H240.731H240.772C240.799 73.0237 240.826 73.0324 240.849 73.0481C240.872 73.0637 240.89 73.0856 240.9 73.1111C240.94 73.2153 240.966 73.3238 241.012 73.4251C241.063 73.5383 241.125 73.6463 241.197 73.7478C241.353 73.9647 241.587 74.1129 241.85 74.1617C242.407 74.2862 242.985 74.2862 243.543 74.1617C243.761 74.1143 243.966 74.0194 244.143 73.8839C244.253 73.7973 244.334 73.68 244.377 73.5469C244.419 73.4139 244.421 73.2712 244.382 73.1371C244.344 73.0173 244.269 72.9125 244.168 72.8376C244.032 72.7402 243.882 72.6654 243.722 72.6162C243.459 72.5279 243.196 72.444 242.929 72.3615C242.201 72.1357 241.473 71.91 240.744 71.6842C240.585 71.635 240.432 71.5684 240.275 71.5149C240.015 71.4142 239.774 71.2671 239.566 71.0808C239.489 71.0213 239.422 70.95 239.368 70.8695C239.173 70.5822 239.039 70.2575 238.976 69.9158C238.885 69.3506 238.967 68.7712 239.21 68.2531C239.459 67.7511 239.86 67.34 240.355 67.078C240.721 66.8784 241.117 66.7401 241.527 66.6685C242.1 66.5694 242.684 66.5475 243.264 66.6033C243.735 66.6367 244.199 66.7462 244.636 66.9275C245.193 67.147 245.673 67.5286 246.012 68.023C246.229 68.3467 246.367 68.717 246.414 69.104C246.481 69.6018 246.559 69.5844 246.01 69.5815H245.345V69.5786Z" fill="white"/>
<path d="M207.164 71.2074V74.9974C207.164 75.0944 207.164 75.1913 207.164 75.2868C207.164 75.5763 207.151 75.5893 206.858 75.5907C206.303 75.5907 205.747 75.5907 205.191 75.5907C205.135 75.5907 205.08 75.5907 205.025 75.5907C205.007 75.5925 204.989 75.5906 204.972 75.5852C204.955 75.5797 204.939 75.5708 204.925 75.559C204.912 75.5472 204.901 75.5328 204.893 75.5166C204.885 75.5004 204.881 75.4828 204.88 75.4648C204.88 75.3404 204.88 75.2159 204.871 75.0915C204.863 74.967 204.871 74.8686 204.86 74.7586C204.86 74.7485 204.847 74.7384 204.838 74.7297C204.834 74.724 204.828 74.7193 204.821 74.7162C204.815 74.713 204.808 74.7113 204.8 74.7113C204.793 74.7113 204.786 74.713 204.78 74.7162C204.773 74.7193 204.767 74.724 204.763 74.7297C204.688 74.8122 204.618 74.8961 204.543 74.9786C204.077 75.5016 203.441 75.8429 202.747 75.9424C202.128 76.0434 201.492 75.9825 200.903 75.7658C200.575 75.6483 200.276 75.4607 200.028 75.216C199.78 74.9714 199.587 74.6755 199.465 74.3491C199.306 73.9629 199.223 73.5497 199.22 73.132C199.22 73.0061 199.22 72.8817 199.22 72.7572V67.2104C199.22 66.6981 199.183 66.7314 199.686 66.7314H201.187C201.27 66.7298 201.352 66.7371 201.433 66.7531C201.452 66.7581 201.47 66.7679 201.485 66.7815C201.5 66.7952 201.511 66.8123 201.517 66.8312C201.531 66.9411 201.537 67.0519 201.536 67.1626C201.536 68.0936 201.536 69.0241 201.536 69.9542C201.536 70.7457 201.536 71.5373 201.536 72.3289C201.531 72.5091 201.539 72.6894 201.557 72.8687C201.582 73.1622 201.706 73.4387 201.908 73.653C202.094 73.8433 202.338 73.9656 202.602 74.0003C202.878 74.0401 203.158 74.0401 203.433 74.0003C203.774 73.9578 204.092 73.8077 204.341 73.5719C204.59 73.3361 204.758 73.0269 204.819 72.6892C204.855 72.4843 204.873 72.2765 204.871 72.0684C204.871 70.4853 204.871 68.9021 204.871 67.3189C204.871 67.1945 204.871 67.07 204.871 66.9441C204.871 66.7719 204.913 66.7372 205.102 66.7314H206.853C206.922 66.7294 206.991 66.7362 207.058 66.7517C207.077 66.7581 207.094 66.769 207.107 66.7833C207.121 66.7977 207.131 66.8151 207.136 66.8341C207.149 66.9571 207.154 67.083 207.155 67.2075V71.2074H207.164Z" fill="white"/>
<path d="M43.1681 75.5887H42.0856C42.0505 75.5915 42.0155 75.5825 41.9861 75.5631C41.9568 75.5437 41.9347 75.515 41.9235 75.4816C41.8931 75.4049 41.8642 75.3268 41.8367 75.2486L40.556 71.5961C40.0572 70.1692 39.557 68.7419 39.0553 67.314C39.0047 67.1693 38.9627 67.0246 38.9222 66.8799C38.9165 66.8629 38.9151 66.8448 38.918 66.8271C38.9209 66.8094 38.9281 66.7927 38.9389 66.7784C38.9498 66.7642 38.9639 66.7528 38.9802 66.7452C38.9964 66.7377 39.0143 66.7342 39.0322 66.7352C39.0886 66.7352 39.1436 66.7265 39.1986 66.7265H41.0321C41.0741 66.7265 41.116 66.7265 41.158 66.7265C41.1996 66.7266 41.2398 66.7411 41.272 66.7675C41.3041 66.7938 41.3262 66.8305 41.3345 66.8712C41.4793 67.3357 41.6138 67.8003 41.7513 68.2662C42.0147 69.1577 42.2752 70.0491 42.5386 70.9405C42.7267 71.5782 42.9158 72.2164 43.1058 72.8551C43.1241 72.905 43.1464 72.9534 43.1724 72.9998C43.1816 73.0107 43.1945 73.0179 43.2086 73.02C43.2136 73.0213 43.2189 73.0213 43.224 73.02C43.229 73.0188 43.2337 73.0163 43.2375 73.0128C43.2723 72.9231 43.3113 72.8334 43.3374 72.7408C43.4531 72.3283 43.566 71.913 43.6803 71.4977C44.0161 70.2821 44.3537 69.0655 44.6933 67.848C44.7744 67.5586 44.8583 67.2605 44.9393 66.9667C44.9509 66.9262 44.9611 66.8857 44.9755 66.848C44.9853 66.8155 45.004 66.7864 45.0296 66.7641C45.0553 66.7418 45.0867 66.7273 45.1202 66.7221C45.1756 66.7168 45.2311 66.7144 45.2867 66.7149H47.1679C47.2229 66.7149 47.2779 66.7221 47.3329 66.7265C47.3528 66.7311 47.3705 66.7424 47.3832 66.7584C47.3958 66.7745 47.4026 66.7943 47.4024 66.8148C47.3763 66.9088 47.3517 67.0029 47.3213 67.0941C46.7791 68.6676 46.2355 70.2411 45.6904 71.8146L44.5023 75.2588C44.4806 75.3239 44.4517 75.389 44.4329 75.4541C44.4252 75.496 44.4027 75.5337 44.3695 75.5603C44.3362 75.5869 44.2945 75.6006 44.252 75.5988C44.1275 75.5988 44.0016 75.5988 43.8772 75.5988C43.6413 75.5988 43.4039 75.5988 43.1681 75.5988V75.5887Z" fill="white"/>
<path d="M160.533 65.6614H159.537C159.503 65.6591 159.471 65.6448 159.446 65.6209C159.422 65.5971 159.406 65.5653 159.403 65.5311C159.403 65.4761 159.403 65.4211 159.403 65.3661V63.8727C159.404 63.8175 159.409 63.7625 159.416 63.7077C159.422 63.6812 159.435 63.6571 159.455 63.6387C159.475 63.6203 159.5 63.6086 159.527 63.605C159.555 63.6007 159.582 63.5978 159.61 63.5963H161.519C161.56 63.5952 161.601 63.6016 161.64 63.6151C161.666 63.6255 161.687 63.6458 161.698 63.6716C161.711 63.7102 161.718 63.7508 161.718 63.7917C161.718 64.3445 161.718 64.8987 161.718 65.4515C161.721 65.4928 161.715 65.5343 161.701 65.5731C161.683 65.6081 161.652 65.635 161.615 65.6483C161.548 65.6609 161.479 65.6662 161.41 65.6643C161.121 65.6643 160.831 65.6643 160.542 65.6643L160.533 65.6614Z" fill="white"/>
</svg>
