<svg width="162" height="37" viewBox="0 0 162 37" fill="none" xmlns="http://www.w3.org/2000/svg">
<path fill-rule="evenodd" clip-rule="evenodd" d="M108.523 16.3559L108.527 17.2315L109.316 17.2483C109.675 17.2533 110.041 17.2554 110.405 17.2548C110.797 17.2539 111.192 17.2494 111.581 17.2415C111.959 17.2342 112.334 17.2228 112.698 17.2085L112.707 17.2076C113.772 17.1665 114.712 17.0441 115.519 16.808C116.314 16.5761 116.982 16.2328 117.519 15.7467C118.052 15.2633 118.463 14.6316 118.745 13.8188C119.034 12.9878 119.193 11.9679 119.215 10.7265C119.239 9.33833 119.117 8.24809 118.849 7.39541C118.589 6.56857 118.192 5.96907 117.662 5.53753C117.122 5.09865 116.431 4.81963 115.596 4.64243C114.738 4.4604 113.73 4.38539 112.58 4.35646L111.629 4.33352C111.279 4.32677 110.88 4.32021 110.482 4.31751V4.34162H108.765C108.685 4.34586 108.612 4.35087 108.548 4.35646C108.473 5.99491 108.508 13.281 108.522 16.3362L108.523 16.3555L108.523 16.3559ZM138.025 18.4006L138.012 18.4328C137.594 19.4222 136.705 21.5309 136.321 22.5107L143.563 22.5284C143.086 21.2706 141.841 18.1734 141.151 16.4575C140.753 15.47 140.37 14.4791 139.975 13.4912C139.898 13.7298 139.779 14.117 139.588 14.577C139.255 15.383 138.846 16.3952 138.557 17.1117C138.382 17.5437 138.206 17.9714 138.025 18.4008L138.025 18.4006ZM42.9791 0.652076H33.2206C32.7209 0.652076 32.3142 1.06241 32.3142 1.56472V5.63298C32.3142 6.13529 32.7209 6.54562 33.2206 6.54562H42.9791C43.4786 6.54562 43.8853 6.13529 43.8853 5.63298V1.56472C43.8853 1.06241 43.4786 0.652076 42.9791 0.652076ZM42.9795 8.09884H25.2617C24.7629 8.09884 24.3556 8.50917 24.3556 9.01168V13.0797C24.3556 13.5821 24.7629 13.9924 25.2617 13.9924H42.9795C43.4782 13.9924 43.8853 13.5821 43.8853 13.0797V9.01168C43.8853 8.50917 43.4782 8.09884 42.9795 8.09884ZM42.9795 15.5462H17.0375C16.5388 15.5462 16.1317 15.9565 16.1317 16.4588V20.5271C16.1317 21.0294 16.5388 21.4397 17.0375 21.4397H42.9795C43.4782 21.4397 43.8853 21.0294 43.8853 20.5271V16.4588C43.8853 15.9565 43.4782 15.5462 42.9795 15.5462ZM42.9795 22.9935H9.22886C8.73067 22.9935 8.32301 23.4039 8.32301 23.9062V27.9744C8.32301 28.4767 8.73067 28.8871 9.22886 28.8871H42.9795C43.4777 28.8871 43.8853 28.4767 43.8853 27.9744V23.9062C43.8853 23.4039 43.4777 22.9935 42.9795 22.9935ZM42.9801 30.4409H0.976749C0.478564 30.4409 0.0712891 30.851 0.0712891 31.3535V35.4216C0.0712891 35.9241 0.478564 36.3344 0.976749 36.3344H42.9801C43.4782 36.3344 43.8853 35.9241 43.8853 35.4216V31.3535C43.8853 30.851 43.4782 30.4409 42.9801 30.4409ZM57.4211 18.4924V4.43842L52.0071 4.43649C51.6565 4.40968 51.4706 4.29785 51.364 4.10155C51.302 3.9872 51.2814 3.8636 51.2743 3.71994H51.2685L51.2743 2.80363C51.2766 2.47486 51.2791 2.14764 51.276 1.82003C51.2708 1.37653 51.3053 1.1083 51.4234 0.928589C51.5688 0.707225 51.7772 0.650534 52.1059 0.64687C52.1847 0.645713 52.2594 0.648605 52.3434 0.652076L52.5154 0.658247C63.0523 0.658247 73.9343 0.67213 84.4171 0.654776C84.5728 0.650919 84.6856 0.64822 84.7995 0.689099C84.9449 0.741162 85.0421 0.836997 85.1173 1.02211L85.1265 1.04756C85.1455 1.11197 85.1619 1.18968 85.1759 1.2884C85.1889 1.38077 85.2008 1.49492 85.2107 1.63858L85.2599 2.26121C85.3575 3.2749 85.4546 4.2884 85.5484 5.30228C85.6109 5.9845 85.6863 6.73074 85.7612 7.4762L85.7637 7.49857C85.8305 8.16344 85.898 8.82869 85.9621 9.51361C86.0263 10.1999 86.085 10.8734 86.1315 11.5192L86.166 11.9953H82.9104L82.8806 11.7679C82.6073 9.68657 81.5747 7.83621 80.0754 6.51207C78.5954 5.20509 76.6593 4.41026 74.5479 4.41026H70.7785L67.8765 4.40467C67.2985 4.40371 66.7197 4.40467 66.1419 4.40776C66.1387 8.3312 66.1369 12.2544 66.1362 16.1781C67.3909 16.0471 71.5611 15.868 71.968 15.6196C73.3253 14.7905 74.0057 13.1904 74.0258 10.2064L74.0271 10.0258L77.1079 9.99625V18.4924V26.9887L74.0271 26.9592L74.0258 26.7785C74.0057 23.7945 73.3253 22.1944 71.968 21.3651C71.5613 21.1169 67.3909 20.9376 66.1362 20.8069C66.1369 24.7305 66.1387 28.6537 66.1419 32.5772C66.7197 32.5803 67.2985 32.5812 67.8765 32.5803L70.7785 32.5747H74.5479C76.6593 32.5747 78.5954 31.7799 80.0754 30.4729C81.5749 29.1487 82.6075 27.2984 82.8806 25.217L82.9104 24.9897H86.166L86.1315 25.4657C86.085 26.1115 86.0264 26.7851 85.9621 27.4713C85.898 28.1561 85.8305 28.8215 85.7637 29.4864L85.7612 29.5087C85.6863 30.2542 85.6109 31.0004 85.5484 31.6827C85.4546 32.6965 85.3575 33.71 85.2599 34.7237L85.2107 35.3464C85.2008 35.49 85.1889 35.6042 85.1759 35.6965C85.1619 35.7953 85.1455 35.8728 85.1265 35.9374L85.1173 35.9628C85.0421 36.1479 84.9449 36.244 84.7995 36.2958C84.6856 36.3367 84.5728 36.3338 84.4171 36.3302C73.9341 36.3128 63.0523 36.3267 52.5154 36.3267L52.3434 36.3329C52.2594 36.3361 52.1847 36.3392 52.1059 36.3381C51.7772 36.3344 51.5688 36.2779 51.4234 36.0564C51.3053 35.8764 51.2708 35.6082 51.276 35.1649C51.2791 34.8373 51.2766 34.5099 51.2743 34.1813L51.2685 33.2648H51.2743C51.2814 33.1213 51.302 32.9977 51.364 32.8834C51.4706 32.6871 51.6565 32.5753 52.0071 32.5485L57.4211 32.5465V18.4924ZM157.152 0.651498C158.172 0.651498 159.095 1.06781 159.762 1.74058C160.43 2.41355 160.844 3.34355 160.844 4.37035C160.844 5.39734 160.43 6.32734 159.762 7.00011C159.095 7.67308 158.172 8.08939 157.152 8.08939C156.133 8.08939 155.21 7.67308 154.542 7.00011C153.874 6.32734 153.461 5.39734 153.461 4.37035C153.461 3.34355 153.874 2.41355 154.542 1.74058C155.21 1.06781 156.133 0.651498 157.152 0.651498ZM156.74 4.55276H156.529V5.51323C156.529 5.64011 156.501 5.73286 156.446 5.79283C156.39 5.8528 156.318 5.88269 156.229 5.88269C156.133 5.88269 156.059 5.85125 156.006 5.78878C155.953 5.72592 155.927 5.63452 155.927 5.51323V3.20973C155.927 3.07938 155.956 2.9847 156.014 2.92608C156.072 2.86765 156.166 2.83834 156.296 2.83834H157.275C157.409 2.83834 157.525 2.84393 157.621 2.8557C157.717 2.86765 157.804 2.8906 157.881 2.92608C157.974 2.9658 158.056 3.02211 158.128 3.09557C158.2 3.16923 158.254 3.25523 158.291 3.35203C158.329 3.4496 158.347 3.55276 158.347 3.6621C158.347 3.8852 158.285 4.06337 158.16 4.19738C158.035 4.33043 157.845 4.4253 157.591 4.48103C157.698 4.5383 157.8 4.62257 157.897 4.73421C157.994 4.84566 158.081 4.96483 158.158 5.09036C158.234 5.21647 158.293 5.32947 158.336 5.43109C158.378 5.53213 158.4 5.60193 158.4 5.64011C158.4 5.67925 158.387 5.7182 158.362 5.75716C158.337 5.7963 158.303 5.82677 158.26 5.84913C158.217 5.8715 158.166 5.88269 158.11 5.88269C158.043 5.88269 157.986 5.86668 157.939 5.83448C157.894 5.80247 157.854 5.76217 157.821 5.71319C157.788 5.66441 157.743 5.5919 157.686 5.49723L157.445 5.09306C157.358 4.94536 157.281 4.83236 157.213 4.75504C157.145 4.67713 157.075 4.62411 157.005 4.59538C156.935 4.56684 156.846 4.55276 156.74 4.55276ZM157.084 3.29399H156.529V4.11794H157.068C157.212 4.11794 157.334 4.1054 157.433 4.08014C157.531 4.05508 157.606 4.01208 157.658 3.95114C157.71 3.89079 157.737 3.80691 157.737 3.70085C157.737 3.61736 157.716 3.54409 157.674 3.48065C157.632 3.4174 157.574 3.36996 157.499 3.33853C157.43 3.30865 157.291 3.2938 157.084 3.2938L157.084 3.29399ZM159.462 2.0439C158.871 1.44845 158.054 1.07996 157.152 1.07996C156.251 1.07996 155.434 1.44845 154.843 2.0439C154.252 2.63935 153.886 3.46214 153.886 4.37054C153.886 5.27914 154.252 6.10193 154.843 6.69738C155.434 7.29282 156.251 7.66132 157.152 7.66132C158.054 7.66132 158.871 7.29282 159.462 6.69738C160.053 6.10193 160.418 5.27914 160.418 4.37054C160.418 3.46214 160.053 2.63935 159.462 2.0439ZM143.543 0.646677L154.466 27.1931L154.475 27.19C154.658 27.6414 154.841 28.094 155.023 28.5481L156.696 32.6134H161.376C161.548 32.6134 161.704 32.6844 161.817 32.7982C161.93 32.9119 162 33.0693 162 33.2426V35.7106C162 35.8836 161.93 36.0415 161.817 36.1555C161.703 36.269 161.547 36.3398 161.376 36.3398H142.891C142.719 36.3398 142.563 36.2692 142.45 36.1555C142.338 36.0407 142.267 35.883 142.267 35.7106V33.2426C142.267 33.0702 142.338 32.9123 142.451 32.7986C142.562 32.6861 142.715 32.6158 142.883 32.6134H142.891H147.526C147.489 32.5218 147.449 32.4264 147.407 32.3296L147.401 32.3163L147.396 32.3032L147.39 32.2899L144.848 26.2507L134.963 26.2444L132.188 32.6132H137.687H137.695C137.863 32.6156 138.015 32.6859 138.127 32.798C138.24 32.9129 138.311 33.0702 138.311 33.2424V35.7104C138.311 35.8828 138.24 36.0404 138.128 36.1541C138.014 36.2689 137.858 36.3396 137.687 36.3396H123.341C123.17 36.3396 123.013 36.2688 122.9 36.1547C122.787 36.0413 122.716 35.884 122.716 35.7104V33.2424C122.716 33.0691 122.787 32.9117 122.9 32.798C123.013 32.6842 123.17 32.6132 123.341 32.6132H128.177L141.799 0.646484H143.543L143.543 0.646677ZM108.757 0.664803H94.2489C94.073 0.664803 93.9128 0.737113 93.7972 0.85358C93.6818 0.970433 93.6098 1.13183 93.6098 1.30942V3.697C93.6098 3.8744 93.6818 4.03618 93.7972 4.15284C93.914 4.26911 94.0736 4.34181 94.2489 4.34181H99.5626V4.3717V4.72149V32.5359H94.2673C94.0921 32.5359 93.9319 32.6082 93.8156 32.7249C93.6998 32.8417 93.628 33.0029 93.628 33.1807V35.7091C93.628 35.8857 93.7 36.0471 93.8167 36.1647C93.9321 36.2812 94.0921 36.3537 94.2673 36.3537H114.185C114.361 36.3537 114.52 36.2812 114.637 36.1647C114.753 36.0483 114.825 35.8863 114.825 35.7091V33.1807C114.825 33.0029 114.753 32.8417 114.637 32.7249C114.521 32.6082 114.361 32.5359 114.185 32.5359H108.533L108.528 21.0284C109.207 21.0203 109.915 21.0232 110.643 21.0271L110.66 21.0259C115.388 21.0448 120.95 21.067 124.668 18.1833C125.112 17.8399 125.653 17.3582 126.184 16.7716C126.604 16.3069 127.02 15.7729 127.378 15.1858C127.684 14.6819 127.947 14.1401 128.133 13.5703C128.3 13.0579 128.406 12.5196 128.425 11.9627C128.446 11.3755 128.464 10.82 128.458 10.283C128.453 9.73941 128.423 9.2207 128.35 8.72032C128.274 8.20605 128.151 7.70624 127.96 7.21184C127.769 6.71531 127.511 6.22823 127.166 5.74269L126.988 5.4926L126.984 5.49723C126.64 5.05025 126.243 4.63143 125.803 4.24231C125.262 3.76352 124.655 3.32889 124.002 2.94131C123.322 2.5383 122.594 2.1864 121.841 1.88964C121.063 1.58285 120.254 1.33237 119.441 1.14224C118.152 0.840853 116.892 0.698548 115.478 0.660368H109.443C109.216 0.661332 108.987 0.662875 108.757 0.66461L108.757 0.664803Z" fill="#FF0009"/>
</svg>
